<svg width="44.300293" height="43.229004" viewBox="0 0 44.3003 43.229" fill="none" xmlns="http://www.w3.org/2000/svg" xmlns:xlink="http://www.w3.org/1999/xlink">
	<desc>
			Created with Pixso.
	</desc>
	<defs>
		<clipPath id="clip17_760">
			<rect id="icons8-pinterest 1" width="44.300259" height="43.229202" fill="white" fill-opacity="0"/>
		</clipPath>
	</defs>
	<rect id="icons8-pinterest 1" width="44.300259" height="43.229202" fill="#FFFFFF" fill-opacity="0"/>
	<g clip-path="url(#clip17_760)">
		<path id="Vector" d="M32.38 36.73C28.72 39.25 24.24 40.43 19.78 40.42C17.52 40.41 15.27 40.06 13.11 39.45C11.13 38.89 9.29 38.03 7.71 36.72C5.42 34.82 3.96 32.16 3.22 29.35C2.83 27.88 2.64 26.35 2.62 24.82C2.61 24.04 2.64 23.27 2.72 22.49C2.75 22.11 2.78 21.75 2.83 21.38L2.83 21.31C2.85 21.14 2.87 20.96 2.89 20.78C3.12 20.17 3.11 19.49 3.23 18.84C3.28 18.49 3.37 18.15 3.46 17.8C3.47 17.74 3.48 17.65 3.49 17.58C3.52 17.48 3.57 17.39 3.61 17.31C3.64 17.2 3.67 17.07 3.7 16.94C3.75 16.87 3.77 16.8 3.77 16.73C5.72 10.17 12.33 5.29 19.16 4.24C23.3 3.6 27.58 4.56 31.28 6.4C34.96 8.21 38.45 11.09 40.3 14.76C44.28 22.64 39.16 32.07 32.38 36.73Z" fill="#ED2224" fill-opacity="1.000000" fill-rule="nonzero"/>
		<path id="Vector" d="M16.92 40.58C17.79 38.8 18.45 36.73 19 34.84C19.28 33.89 19.52 32.93 19.72 31.97C19.77 31.71 19.8 30.69 19.99 30.54C20.26 30.33 20.52 30.92 20.7 31.08C21.19 31.52 21.83 31.8 22.48 31.93C23.47 32.13 24.48 32.04 25.48 31.94C26.41 31.84 27.36 31.74 28.22 31.38C29.23 30.95 30.05 30.2 30.84 29.44C31.54 28.75 32.24 28.05 32.77 27.22C33.97 25.32 34.16 22.97 34.06 20.74C33.97 18.66 33.65 16.52 32.55 14.73C31.81 13.51 30.75 12.52 29.64 11.61C29.38 11.39 29.11 11.18 28.79 11.04C28.44 10.88 28.05 10.83 27.69 10.71C27.19 10.55 26.75 10.27 26.29 10.05C24.92 9.37 23.35 9.12 21.83 9.3C20.29 9.48 18.65 9.97 17.27 10.65C16.59 10.99 15.9 11.11 15.31 11.59C14.84 11.97 14.08 12.42 13.69 12.89C12.46 14.34 11.3 15.72 10.52 17.45C9.75 19.17 9.76 21.54 10.44 23.3C11.15 25.16 13.02 27.53 14.17 28.13C14.19 28.14 14.74 27.14 14.82 26.86C14.97 26.31 15.33 25.79 15.28 25.34C15.17 24.44 14.1 23.93 13.86 23.05C13.45 21.62 13.59 20.07 14 18.64C14.24 17.81 14.57 17 15.1 16.31C16.01 15.12 17.44 14.4 18.87 13.88C20.2 13.39 21.59 13.03 23.01 13.05C24.43 13.07 25.88 13.5 26.92 14.43C27.5 14.94 27.93 15.58 28.39 16.19C28.78 16.71 29.21 17.22 29.44 17.83C29.67 18.42 29.7 19.07 29.72 19.7C29.75 20.59 29.75 21.49 29.59 22.36C29.38 23.45 28.91 24.48 28.44 25.49C28.23 25.95 28.02 26.41 27.74 26.83C26.91 28.05 25.48 28.86 23.99 28.96C23.41 29 22.8 28.92 22.32 28.61C21.53 28.1 21.26 27.07 21.29 26.14C21.37 23.63 23.11 21.23 22.55 18.78C22.45 18.31 22.25 17.86 21.91 17.52C21.09 16.73 19.65 16.89 18.77 17.62C17.89 18.35 17.48 19.47 17.25 20.57C17.07 21.47 16.99 22.46 17.47 23.25C17.63 23.52 17.86 23.77 17.91 24.07C17.96 24.33 17.89 24.59 17.81 24.84C16.8 28 15.07 31.12 15.47 34.41C15.56 35.19 15.44 36.13 15.48 36.92C15.52 37.57 15.42 38.06 15.28 38.69C15.16 39.25 14.96 39.72 14.98 40.29L16.92 40.58Z" fill="#D6E5E5" fill-opacity="1.000000" fill-rule="nonzero"/>
		<path id="Vector" d="M16.92 41.03C16.89 41.03 16.87 41.03 16.85 41.02L14.91 40.73C14.69 40.7 14.52 40.52 14.52 40.3C14.5 39.83 14.61 39.43 14.72 39.04C14.76 38.89 14.8 38.75 14.83 38.6C14.96 38 15.05 37.54 15.02 36.94C15 36.59 15.01 36.22 15.03 35.84C15.04 35.36 15.06 34.87 15.01 34.46C14.7 31.89 15.62 29.44 16.52 27.07C16.81 26.3 17.12 25.49 17.37 24.71C17.43 24.5 17.49 24.3 17.46 24.15C17.43 24.02 17.33 23.87 17.23 23.71C17.17 23.63 17.12 23.55 17.07 23.47C16.48 22.49 16.63 21.29 16.8 20.48C17.11 19 17.66 17.95 18.47 17.28C19.47 16.45 21.19 16.19 22.23 17.2C22.6 17.56 22.87 18.06 23.01 18.68C23.35 20.21 22.88 21.7 22.42 23.14C22.11 24.13 21.78 25.16 21.75 26.16C21.72 27.11 22.03 27.89 22.58 28.24C22.91 28.46 23.38 28.55 23.96 28.51C25.31 28.42 26.61 27.68 27.35 26.58C27.61 26.19 27.81 25.76 28.02 25.31C28.47 24.33 28.93 23.32 29.13 22.28C29.3 21.43 29.28 20.55 29.26 19.72C29.24 19.08 29.21 18.5 29.01 17.99C28.83 17.51 28.5 17.09 28.16 16.64L27.78 16.13C27.4 15.63 27.05 15.15 26.61 14.76C25.72 13.96 24.44 13.52 23.01 13.5C21.82 13.49 20.57 13.74 19.03 14.3C17.95 14.7 16.4 15.37 15.47 16.58C15.04 17.14 14.71 17.85 14.45 18.76C14 20.3 13.96 21.7 14.3 22.93C14.39 23.24 14.64 23.53 14.91 23.82C15.26 24.22 15.67 24.67 15.74 25.29C15.79 25.69 15.63 26.07 15.47 26.43C15.4 26.61 15.32 26.79 15.27 26.98C15.26 26.99 14.69 28.4 14.36 28.54C14.23 28.6 14.08 28.59 13.95 28.52C12.67 27.86 10.76 25.4 10.01 23.46C9.27 21.53 9.3 19.04 10.1 17.26C10.9 15.49 12.07 14.1 13.32 12.62C13.64 12.25 14.07 11.94 14.49 11.63C14.68 11.5 14.86 11.37 15.01 11.25C15.45 10.89 15.92 10.71 16.38 10.54C16.61 10.45 16.84 10.37 17.07 10.25C18.52 9.54 20.19 9.04 21.77 8.85C23.4 8.66 25.07 8.95 26.5 9.65C26.64 9.71 26.77 9.79 26.91 9.86C27.23 10.02 27.52 10.18 27.83 10.28C27.97 10.33 28.1 10.36 28.24 10.39C28.48 10.45 28.73 10.52 28.98 10.63C29.35 10.79 29.65 11.02 29.94 11.26C30.91 12.05 32.12 13.13 32.95 14.5C34.21 16.56 34.45 19.04 34.53 20.72C34.61 22.57 34.55 25.27 33.16 27.46C32.6 28.34 31.87 29.08 31.16 29.76C30.36 30.54 29.48 31.34 28.4 31.79C27.45 32.19 26.39 32.3 25.53 32.39C24.62 32.48 23.48 32.59 22.39 32.37C21.61 32.21 20.92 31.88 20.39 31.41C20.34 31.37 20.3 31.32 20.26 31.27C20.24 31.41 20.23 31.55 20.22 31.64C20.2 31.82 20.19 31.97 20.17 32.05C19.97 33.03 19.73 34.01 19.45 34.96C18.9 36.81 18.23 38.94 17.33 40.77C17.26 40.93 17.09 41.03 16.92 41.03ZM15.47 39.9L16.65 40.08C17.44 38.38 18.06 36.42 18.56 34.71C18.83 33.78 19.07 32.83 19.27 31.88C19.28 31.81 19.29 31.7 19.3 31.56C19.38 30.78 19.44 30.4 19.7 30.19C19.84 30.08 20.02 30.02 20.2 30.05C20.54 30.1 20.74 30.38 20.91 30.61C20.95 30.66 20.98 30.72 21.01 30.75C21.42 31.1 21.96 31.36 22.58 31.49C23.46 31.67 24.36 31.6 25.44 31.49C26.44 31.39 27.27 31.29 28.04 30.96C28.97 30.57 29.74 29.87 30.51 29.12C31.18 28.47 31.87 27.78 32.38 26.98C33.63 25.01 33.68 22.48 33.61 20.76C33.54 19.17 33.31 16.85 32.16 14.96C31.4 13.71 30.26 12.69 29.35 11.95C29.1 11.74 28.86 11.56 28.6 11.44C28.41 11.36 28.21 11.31 28.01 11.26C27.85 11.22 27.7 11.18 27.54 11.13C27.16 11.01 26.81 10.83 26.47 10.65C26.34 10.58 26.22 10.51 26.08 10.45C24.82 9.83 23.33 9.58 21.89 9.75C20.43 9.92 18.82 10.39 17.49 11.05C17.23 11.18 16.97 11.28 16.71 11.38C16.29 11.54 15.93 11.67 15.61 11.93C15.44 12.07 15.25 12.21 15.04 12.36C14.68 12.61 14.28 12.91 14.05 13.17C12.83 14.62 11.69 15.96 10.95 17.62C10.24 19.2 10.21 21.42 10.88 23.14C11.51 24.79 13 26.71 14.02 27.49C14.17 27.2 14.35 26.85 14.38 26.75C14.44 26.52 14.53 26.3 14.62 26.09C14.73 25.83 14.84 25.56 14.83 25.39C14.78 25.05 14.52 24.76 14.21 24.41C13.91 24.07 13.56 23.68 13.42 23.17C13.02 21.78 13.07 20.21 13.56 18.51C13.85 17.5 14.23 16.69 14.73 16.04C15.81 14.64 17.52 13.89 18.71 13.46C20.35 12.85 21.7 12.58 23.02 12.59C24.68 12.62 26.18 13.15 27.24 14.1C27.75 14.55 28.14 15.08 28.53 15.6L28.9 16.1C29.27 16.58 29.64 17.07 29.87 17.67C30.12 18.31 30.16 18.99 30.18 19.69C30.21 20.57 30.22 21.5 30.04 22.44C29.82 23.59 29.33 24.65 28.86 25.67C28.65 26.14 28.43 26.62 28.12 27.07C27.22 28.41 25.65 29.3 24.02 29.41C23.24 29.46 22.58 29.32 22.07 28.99C21.24 28.45 20.79 27.41 20.83 26.13C20.87 25.01 21.21 23.92 21.54 22.87C21.99 21.48 22.4 20.17 22.11 18.87C22 18.42 21.83 18.07 21.59 17.84C20.93 17.21 19.76 17.39 19.07 17.96C18.42 18.5 17.97 19.38 17.71 20.66C17.49 21.72 17.54 22.47 17.87 23.02C17.91 23.08 17.95 23.15 18 23.21C18.14 23.43 18.31 23.68 18.37 23.99C18.43 24.34 18.35 24.67 18.25 24.97C17.99 25.78 17.68 26.6 17.39 27.38C16.49 29.76 15.64 32 15.93 34.35C15.98 34.84 15.97 35.36 15.95 35.87C15.94 36.22 15.93 36.57 15.95 36.9C15.98 37.6 15.87 38.15 15.73 38.79C15.7 38.95 15.66 39.11 15.61 39.26C15.55 39.49 15.49 39.7 15.47 39.9Z" fill="#010101" fill-opacity="1.000000" fill-rule="nonzero"/>
		<path id="Vector" d="M40.27 12.99C38.09 9.58 34.57 6.94 30.87 5.25C27.12 3.55 22.83 2.76 18.73 3.46C11.65 4.66 4.88 9.77 2.9 16.59C2.62 17.06 2.57 17.7 2.46 18.22C2.37 18.58 2.31 18.95 2.25 19.32C2.25 19.35 2.25 19.4 2.24 19.43C2.23 19.46 2.22 19.47 2.22 19.5C2.15 19.85 2.09 20.21 2.04 20.56C2.04 20.57 2.03 20.57 2.03 20.58C1.99 20.68 1.98 20.77 1.99 20.85C1.91 21.53 1.85 22.22 1.79 22.9C1.73 23.87 1.72 24.84 1.77 25.8C1.88 27.68 2.25 29.55 2.92 31.33C4.24 34.86 6.86 37.79 10.37 39.38C12.37 40.27 14.59 40.78 16.76 41.07C18.97 41.34 21.22 41.33 23.43 41.01C27.83 40.39 31.95 38.5 35.2 35.54C38.35 32.68 40.83 28.99 41.96 24.92C43.11 20.87 42.56 16.57 40.27 12.99ZM32.37 36.73C28.7 39.25 24.23 40.43 19.77 40.42C17.52 40.41 15.27 40.07 13.1 39.45C11.12 38.88 9.28 38.03 7.7 36.72C5.41 34.82 3.96 32.16 3.2 29.35C2.81 27.88 2.63 26.35 2.61 24.82C2.59 24.04 2.63 23.26 2.7 22.49C2.74 22.12 2.77 21.74 2.81 21.37C2.81 21.36 2.81 21.33 2.81 21.32C2.84 21.14 2.87 20.96 2.89 20.78C3.12 20.17 3.09 19.48 3.21 18.84C3.28 18.49 3.37 18.15 3.45 17.8C3.46 17.73 3.47 17.66 3.48 17.58C3.52 17.49 3.56 17.4 3.6 17.31C3.63 17.2 3.66 17.07 3.7 16.95C3.74 16.88 3.77 16.8 3.76 16.73C5.71 10.18 12.32 5.29 19.15 4.24C23.29 3.6 27.57 4.56 31.27 6.4C34.96 8.21 38.44 11.1 40.29 14.76C44.28 22.64 39.16 32.07 32.37 36.73Z" fill="#000000" fill-opacity="1.000000" fill-rule="nonzero"/>
	</g>
</svg>
