<svg width="44.300293" height="43.229004" viewBox="0 0 44.3003 43.229" fill="none" xmlns="http://www.w3.org/2000/svg" xmlns:xlink="http://www.w3.org/1999/xlink">
	<desc>
			Created with Pixso.
	</desc>
	<defs>
		<clipPath id="clip17_783">
			<rect id="icons8-телеграм" width="44.300259" height="43.229202" fill="white" fill-opacity="0"/>
		</clipPath>
	</defs>
	<rect id="icons8-телеграм" width="44.300259" height="43.229202" fill="#FFFFFF" fill-opacity="0"/>
	<g clip-path="url(#clip17_783)">
		<path id="Vector" d="M41.53 21.61C41.53 32.06 32.85 40.52 22.15 40.52C11.44 40.52 2.76 32.06 2.76 21.61C2.76 11.16 11.44 2.7 22.15 2.7C32.85 2.7 41.53 11.16 41.53 21.61Z" fill="#74CCCF" fill-opacity="1.000000" fill-rule="evenodd"/>
		<path id="Vector" d="M38.94 31.07C37.24 33.94 34.96 36.64 32.02 38.3C29.17 39.91 25.68 40.89 22.15 40.89C18.61 40.89 15.16 39.84 12.31 38.23C9.37 36.57 6.91 34.02 5.21 31.15C3.56 28.37 3.11 25.06 3.11 21.61C3.11 18.16 3.74 14.95 5.39 12.17C7.09 9.3 9.42 6.73 12.36 5.07C15.21 3.46 18.61 2.87 22.15 2.87C25.68 2.87 28.95 3.68 31.8 5.29C34.74 6.95 36.92 9.46 38.62 12.33C40.27 15.11 41.57 18.16 41.57 21.61C41.57 25.06 40.59 28.29 38.94 31.07Z" stroke="#010101" stroke-opacity="1.000000" stroke-width="1.000000"/>
		<path id="Vector" d="M16.32 24.14C16.77 25.86 17.33 27.55 17.97 29.21C18.11 29.57 18.31 29.98 18.69 30.06C19.03 30.14 19.36 29.93 19.63 29.72C20.41 29.11 21.12 28.42 21.75 27.66C22.78 28.5 23.87 29.29 24.91 30.13C25.31 30.46 25.73 30.79 26.21 30.98C26.7 31.16 27.29 31.18 27.72 30.88C28.02 30.68 28.21 30.37 28.36 30.05C28.7 29.36 28.95 28.63 29.13 27.89C29.87 24.91 29.92 22.26 31.28 18.94C31.71 17.88 31.8 16.7 31.88 15.56C31.92 14.88 31.38 14.32 30.69 14.29C29.87 14.26 29.06 14.46 28.27 14.7C22.62 16.35 17.58 18.52 12.57 20.7C12.1 20.9 11.6 21.07 11.24 21.42C11.04 21.62 10.88 21.89 10.91 22.17C10.96 22.68 11.57 22.92 12.08 23.05C13.49 23.41 14.88 23.88 16.32 24.14Z" fill="#D6E5E5" fill-opacity="1.000000" fill-rule="nonzero"/>
		<path id="Vector" d="M19.23 25.49L18.95 29.91L21.75 27.66L19.23 25.49Z" fill="#BCBCBC" fill-opacity="1.000000" fill-rule="nonzero"/>
		<path id="Vector" d="M19.12 25.22C20.14 26.23 21.21 27.19 22.31 28.12" stroke="#010101" stroke-opacity="1.000000" stroke-width="1.000000" stroke-linejoin="round"/>
		<path id="Vector" d="M16.85 23.76L27.35 17.07L27.82 17.48L19.56 24.9L19.18 26.04L18.58 29.86L16.38 24.49L16.85 23.76Z" fill="#BCBCBC" fill-opacity="1.000000" fill-rule="nonzero"/>
		<path id="Vector" d="M17.97 29.21C18.11 29.57 18.31 29.98 18.69 30.06C19.03 30.14 19.36 29.93 19.63 29.72C20.41 29.11 21.12 28.42 21.75 27.66C22.78 28.5 23.87 29.29 24.91 30.13C25.31 30.46 25.73 30.79 26.21 30.98C26.7 31.16 27.29 31.18 27.72 30.88C28.02 30.68 28.21 30.37 28.36 30.05C28.7 29.36 28.95 28.63 29.13 27.89C29.87 24.91 29.92 22.26 31.28 18.94C31.71 17.88 31.8 16.7 31.88 15.56C31.92 14.88 31.38 14.32 30.69 14.29C29.87 14.26 29.06 14.46 28.27 14.7C22.62 16.35 17.58 18.52 12.57 20.7C12.1 20.9 11.6 21.07 11.24 21.42C11.04 21.62 10.88 21.89 10.91 22.17C10.96 22.68 11.57 22.92 12.08 23.05C13.49 23.41 14.88 23.88 16.32 24.14C16.77 25.86 17.33 27.55 17.97 29.21Z" stroke="#010101" stroke-opacity="1.000000" stroke-width="1.000000" stroke-linejoin="round"/>
		<path id="Vector" d="M16.32 24.14C19.42 22.14 22.26 20.37 25.36 18.37C26 17.96 27.72 16.79 28.01 17.24C28.39 17.82 22.12 22.58 19.13 25.23C18.97 26.79 18.86 28.35 18.78 29.91" stroke="#010101" stroke-opacity="1.000000" stroke-width="1.000000" stroke-linejoin="round"/>
	</g>
</svg>
