<svg width="44.300293" height="43.229004" viewBox="0 0 44.3003 43.229" fill="none" xmlns="http://www.w3.org/2000/svg" xmlns:xlink="http://www.w3.org/1999/xlink">
	<desc>
			Created with Pixso.
	</desc>
	<defs>
		<clipPath id="clip17_767">
			<rect id="icons8-мессенджер-вконтакте" width="44.300259" height="43.229202" fill="white" fill-opacity="0"/>
		</clipPath>
	</defs>
	<rect id="icons8-мессенджер-вконтакте" width="44.300259" height="43.229202" fill="#FFFFFF" fill-opacity="0"/>
	<g clip-path="url(#clip17_767)">
		<path id="Vector" d="M5.17 30.34C1.84 24.11 2.96 14.53 7.74 9.27C10.78 5.93 15.72 3.71 20.28 3.24C24.84 2.78 29.62 4.06 33.1 6.96C34.04 7.75 34.89 8.65 35.71 9.57C36.54 10.5 37.35 11.45 38.05 12.47C40.33 15.84 41.28 20.04 40.67 24.03C40.06 28.02 37.88 31.77 34.69 34.34C33.72 35.12 32.66 35.8 31.6 36.47C30.58 37.13 29.55 37.78 28.43 38.27C27.03 38.88 25.51 39.21 23.99 39.48C21.57 39.9 19.01 40.15 16.71 39.31C15.72 38.95 14.81 38.39 13.8 38.07C11.2 37.24 8.19 38.28 5.45 38.17C5.24 38.16 5.01 38.14 4.83 38.03C4.55 37.87 4.44 37.53 4.41 37.21C4.27 35.81 5.49 34.38 5.73 32.99C5.89 32.08 5.61 31.16 5.17 30.34Z" fill="#4B7BB2" fill-opacity="1.000000" fill-rule="nonzero"/>
		<path id="Vector" d="M39.33 13.72C38.27 11.72 36.75 9.99 35.2 8.34C33.77 6.83 32.15 5.52 30.25 4.58C23 0.99 13.45 2.82 7.83 8.51C5.35 11.03 3.87 14.39 3.21 17.79C2.54 21.26 2.64 24.95 3.8 28.31C4.06 29.09 4.39 29.84 4.78 30.57C5.35 31.68 5.45 32.72 4.98 33.88C4.6 34.8 4.05 35.69 3.95 36.71C3.88 37.52 4.15 38.41 5.07 38.58C6.08 38.77 7.24 38.57 8.25 38.46C9.39 38.33 10.54 38.18 11.69 38.2C12.89 38.23 13.95 38.56 15.03 39.06C16.01 39.52 16.98 39.94 18.05 40.14C19.13 40.33 20.24 40.35 21.33 40.27C23.62 40.11 26.04 39.7 28.17 38.86C30.29 38.03 32.27 36.68 34.1 35.36C37.38 32.99 39.79 29.6 40.79 25.72C41.83 21.71 41.28 17.38 39.33 13.72ZM40.35 22.72C40.09 26.51 38.37 30.17 35.64 32.88C34.15 34.36 32.34 35.49 30.56 36.6C29.59 37.2 28.61 37.76 27.53 38.14C26.48 38.52 25.38 38.77 24.28 38.97C22.17 39.36 19.92 39.67 17.8 39.17C16.76 38.92 15.84 38.42 14.87 38C13.97 37.61 13.06 37.38 12.08 37.32C9.96 37.19 7.87 37.75 5.74 37.73C5.54 37.72 5.2 37.76 5.03 37.62C4.85 37.46 4.85 37.09 4.86 36.88C4.88 36.37 5.09 35.87 5.29 35.41C5.65 34.58 6.11 33.77 6.21 32.85C6.32 31.89 6.01 30.96 5.57 30.11C4.02 27.17 3.54 23.77 3.78 20.5C4.01 17.18 5.01 13.83 6.92 11.04C8.98 8.04 12.24 5.94 15.69 4.74C19.35 3.47 23.31 3.22 27.06 4.3C28.93 4.84 30.7 5.7 32.24 6.86C33.95 8.15 35.41 9.81 36.73 11.46C39.3 14.66 40.63 18.65 40.35 22.72Z" fill="#010101" fill-opacity="1.000000" fill-rule="nonzero"/>
		<path id="Vector" d="M9.75 16.05C9.39 18.8 10.42 20.82 11.81 22.92C13.94 26.14 16.78 29.27 20.61 30.07C21.69 30.3 23.11 30.13 23.46 29.11C23.67 28.47 23.36 27.8 23.27 27.14C23.18 26.48 23.54 25.61 24.21 25.67C24.57 25.7 24.84 25.98 25.08 26.24C25.86 27.11 26.64 27.98 27.42 28.85C28.03 29.52 29.12 30.2 29.94 30.09C30.54 30.01 31.61 29.87 32.18 29.72C32.34 29.68 32.51 29.62 32.62 29.51C32.77 29.35 32.78 29.11 32.77 28.89C32.72 28.14 32.44 27.4 31.98 26.8C31.16 25.7 29.76 24.99 29.34 23.69C28.9 22.31 29.77 20.88 30.69 19.76C31.62 18.63 32.7 17.47 32.78 16.02C32.79 15.74 32.73 15.4 32.48 15.27C32.34 15.21 32.18 15.22 32.03 15.23C30.58 15.33 29.15 15.64 27.79 16.14C27.52 16.24 27.25 16.35 27.06 16.56C26.82 16.84 26.77 17.23 26.72 17.59C26.46 19.51 25.47 21.42 23.62 22.06C23.53 20.54 23.56 19.13 23.71 17.61C23.76 17.12 23.79 16.55 23.43 16.21C23.15 15.95 22.74 15.92 22.36 15.91C20.96 15.85 19.56 15.86 18.17 15.93C17.74 15.96 17.19 16.09 17.16 16.51C17.14 16.75 17.31 16.96 17.46 17.15C18.56 18.59 18.59 20.53 18.58 22.33C18.57 22.76 18.44 23.34 18 23.36C17.72 23.37 17.51 23.13 17.34 22.91C16.22 21.41 15.32 19.75 14.68 17.99C14.47 17.43 14.29 16.93 13.88 16.48C12.93 15.44 10.59 15.9 9.75 16.05Z" fill="#D6E5E5" fill-opacity="1.000000" fill-rule="nonzero"/>
		<path id="Vector" d="M33.09 28.03C32.8 26.97 32.11 26.17 31.31 25.44C30.48 24.68 29.57 23.89 29.7 22.67C29.96 20.2 32.82 18.88 33.2 16.41C33.27 15.95 33.28 15.39 32.92 15.04C32.48 14.61 31.74 14.79 31.21 14.86C30.48 14.95 29.76 15.08 29.05 15.27C28.4 15.44 27.66 15.62 27.09 15.96C26.58 16.27 26.39 16.77 26.3 17.32C26.21 17.91 26.1 18.48 25.89 19.04C25.54 19.98 24.93 20.83 24.06 21.35C24.03 20.24 24.04 19.14 24.13 18.04C24.21 17.08 24.32 15.89 23.13 15.55C22.61 15.4 22.01 15.44 21.48 15.43C20.74 15.42 20.01 15.42 19.27 15.44C18.5 15.46 17.04 15.32 16.74 16.27C16.58 16.77 16.9 17.15 17.17 17.53C17.52 18.04 17.75 18.6 17.89 19.2C18.02 19.75 18.07 20.31 18.1 20.87C18.12 21.43 18.21 22.08 18.09 22.62C17.99 23.06 17.82 22.78 17.62 22.52C17.46 22.31 17.31 22.09 17.16 21.86C16.79 21.31 16.45 20.73 16.14 20.14C15.57 19.07 15.26 17.87 14.67 16.82C13.66 14.99 11.41 15.3 9.63 15.61C9.39 15.66 9.3 15.83 9.3 16.01C9.3 16.03 9.29 16.04 9.29 16.05C9.01 18.41 9.77 20.54 11.02 22.54C12.22 24.46 13.64 26.33 15.38 27.84C16.96 29.2 19.01 30.45 21.17 30.6C22.02 30.66 23 30.49 23.57 29.82C23.88 29.46 24.01 29 23.99 28.53C23.97 27.92 23.63 27.31 23.73 26.71C23.77 26.53 23.85 26.24 24.03 26.16C24.33 26.03 24.57 26.37 24.75 26.56C25.25 27.09 25.73 27.64 26.22 28.19C27.03 29.09 27.82 30.06 29.04 30.44C29.93 30.71 31.03 30.42 31.91 30.24C32.35 30.16 32.81 30.06 33.06 29.67C33.36 29.21 33.22 28.52 33.09 28.03ZM32.06 29.28C31.71 29.46 31.16 29.46 30.78 29.52C30.32 29.59 29.83 29.71 29.37 29.59C28.22 29.28 27.47 28.21 26.72 27.39C26.28 26.9 25.85 26.4 25.4 25.92C25.08 25.58 24.71 25.24 24.21 25.22C23.39 25.18 22.9 25.95 22.81 26.67C22.7 27.55 23.59 28.9 22.57 29.48C21.77 29.93 20.69 29.67 19.88 29.42C18.89 29.11 17.96 28.62 17.11 28.04C15.15 26.69 13.61 24.79 12.3 22.84C10.97 20.85 10.03 18.82 10.19 16.43C10.81 16.33 11.43 16.25 12.06 16.28C13.06 16.32 13.66 16.71 14.05 17.62C14.5 18.68 14.88 19.75 15.43 20.77C15.92 21.67 16.47 22.77 17.23 23.48C17.93 24.14 18.79 23.68 18.98 22.86C19.19 21.97 19.06 20.87 18.95 19.96C18.83 18.95 18.56 17.93 17.96 17.07C17.9 16.97 17.8 16.88 17.74 16.78C17.64 16.6 17.61 16.57 17.76 16.46C17.9 16.35 18.22 16.38 18.39 16.37C19.05 16.34 19.71 16.33 20.37 16.32C21.08 16.32 21.81 16.3 22.52 16.36C22.92 16.4 23.2 16.51 23.27 16.93C23.31 17.22 23.25 17.54 23.23 17.83C23.1 19.24 23.08 20.65 23.15 22.06C23.17 22.33 23.44 22.6 23.74 22.49C25.54 21.83 26.61 20.21 27.03 18.43C27.13 18 27.12 17.5 27.28 17.09C27.5 16.54 28.38 16.4 28.89 16.25C29.46 16.08 30.03 15.95 30.61 15.85C30.94 15.79 31.28 15.75 31.62 15.71C31.93 15.68 32.24 15.54 32.32 15.88C32.41 16.32 32.13 16.94 31.93 17.32C31.65 17.85 31.28 18.34 30.9 18.8C30.22 19.63 29.51 20.43 29.1 21.42C28.69 22.38 28.63 23.41 29.12 24.35C29.54 25.13 30.26 25.69 30.9 26.29C31.28 26.66 31.64 27.04 31.89 27.5C32.11 27.89 32.63 29 32.06 29.28Z" fill="#010101" fill-opacity="1.000000" fill-rule="nonzero"/>
	</g>
</svg>
