<svg width="44.300293" height="43.229004" viewBox="0 0 44.3003 43.229" fill="none" xmlns="http://www.w3.org/2000/svg" xmlns:xlink="http://www.w3.org/1999/xlink">
	<desc>
			Created with Pixso.
	</desc>
	<defs>
		<clipPath id="clip17_774">
			<rect id="icons8-whatsapp 1" width="44.300259" height="43.229202" fill="white" fill-opacity="0"/>
		</clipPath>
	</defs>
	<rect id="icons8-whatsapp 1" width="44.300259" height="43.229202" fill="#FFFFFF" fill-opacity="0"/>
	<g clip-path="url(#clip17_774)">
		<path id="Vector" d="M2.97 40.43C3.04 40.3 3.04 39.59 3.07 39.45C3.15 39.18 3.26 38.9 3.36 38.64C3.46 38.38 3.55 38.14 3.62 37.87C3.69 37.59 3.81 37.33 3.91 37.06C3.99 36.82 4.08 36.58 4.14 36.33C4.16 36.22 4.24 36.12 4.26 36.01C4.27 35.9 4.28 35.78 4.3 35.66C4.34 35.43 4.38 35.21 4.42 34.99C4.47 34.76 4.58 34.54 4.61 34.31C4.68 33.92 4.77 33.53 4.85 33.14C4.94 32.72 4.99 32.31 5.08 31.89C5.22 31.21 4.93 30.94 4.72 30.32C4.5 29.65 4.29 28.96 4.1 28.27C3.73 26.89 3.46 25.49 3.3 24.07C2.99 21.27 3.14 18.41 3.99 15.71C4.21 15.02 4.47 14.33 4.79 13.67C6.16 10.73 8.42 8.24 11.02 6.23C13.24 4.53 15.77 3.14 18.53 2.6C21.57 2.01 24.75 2.5 27.69 3.44C31.33 4.6 34.79 6.5 37.31 9.31C39.33 11.58 40.69 14.4 41.31 17.36C42.79 24.42 39.73 32.19 33.8 36.48C29.65 39.47 24.25 40.66 19.17 39.93C17.79 39.73 16.43 39.39 15.13 38.91C14.47 38.67 13.84 38.39 13.21 38.08C12.51 37.74 12.04 38.07 11.31 38.25C10.43 38.46 9.59 38.78 8.7 39.03C8.5 39.08 8.31 39.16 8.11 39.22C7.97 39.25 7.81 39.27 7.68 39.32C7.58 39.36 7.51 39.41 7.4 39.43C6.96 39.49 6.54 39.64 6.1 39.73C5.63 39.83 5.19 40.01 4.72 40.07C4.44 40.11 4.11 40.14 3.83 40.22C3.67 40.26 3.51 40.32 3.34 40.35C3.25 40.37 3.06 40.37 2.97 40.43C2.99 40.43 3.09 40.43 3.11 40.42L2.97 40.43Z" fill="#D6E5E5" fill-opacity="1.000000" fill-rule="nonzero"/>
		<path id="Vector" d="M2.97 40.88C2.9 40.88 2.83 40.86 2.76 40.83C2.55 40.72 2.46 40.47 2.54 40.26C2.56 40.17 2.57 39.99 2.58 39.82C2.59 39.57 2.6 39.43 2.63 39.33C2.7 39.1 2.79 38.86 2.87 38.64L2.98 38.36C3.05 38.16 3.12 37.98 3.17 37.77C3.22 37.56 3.29 37.37 3.37 37.18C3.41 37.09 3.44 37 3.47 36.91L3.52 36.77C3.59 36.59 3.65 36.43 3.68 36.25C3.71 36.14 3.75 36.05 3.78 35.99C3.81 35.9 3.81 35.86 3.82 35.81C3.82 35.73 3.83 35.66 3.85 35.58L3.97 34.9C4 34.78 4.04 34.66 4.08 34.54C4.11 34.44 4.14 34.34 4.16 34.24C4.21 33.95 4.27 33.66 4.33 33.38L4.4 33.05C4.45 32.84 4.48 32.64 4.51 32.44C4.55 32.23 4.59 32.02 4.63 31.8C4.7 31.45 4.63 31.27 4.48 30.95C4.42 30.81 4.35 30.65 4.29 30.47C4.06 29.79 3.85 29.09 3.66 28.39C3.27 26.94 3 25.5 2.84 24.12C2.5 21.03 2.74 18.16 3.55 15.58C3.78 14.86 4.05 14.15 4.37 13.48C5.68 10.68 7.82 8.13 10.74 5.88C13.31 3.9 15.9 2.65 18.44 2.16C21.23 1.62 24.39 1.91 27.84 3.01C31.91 4.31 35.3 6.38 37.65 9.02C39.69 11.3 41.11 14.15 41.77 17.27C43.29 24.55 40.2 32.42 34.07 36.84C29.91 39.85 24.45 41.14 19.11 40.38C17.68 40.17 16.29 39.82 14.97 39.34C14.35 39.11 13.71 38.83 13 38.48C12.66 38.31 12.43 38.38 11.95 38.53C11.79 38.59 11.61 38.64 11.42 38.69C10.92 38.81 10.43 38.97 9.93 39.12C9.57 39.24 9.21 39.36 8.84 39.46C8.75 39.48 8.67 39.51 8.59 39.54C8.47 39.58 8.35 39.62 8.23 39.65C8.17 39.67 8.1 39.68 8.04 39.7C7.97 39.71 7.9 39.72 7.84 39.74C7.71 39.8 7.61 39.85 7.47 39.87C7.23 39.91 6.99 39.97 6.76 40.04C6.57 40.08 6.39 40.13 6.2 40.17C6.02 40.21 5.85 40.26 5.67 40.31C5.39 40.39 5.1 40.47 4.78 40.52L4.63 40.54C4.41 40.56 4.17 40.59 3.97 40.65L3.83 40.69C3.7 40.73 3.57 40.77 3.44 40.79C3.41 40.8 3.38 40.8 3.35 40.81C3.29 40.84 3.23 40.87 3.16 40.87C3.14 40.87 3.05 40.88 3.03 40.88C3.01 40.88 2.99 40.88 2.97 40.88ZM21.29 2.8C20.36 2.8 19.47 2.88 18.62 3.04C16.22 3.51 13.77 4.7 11.31 6.59C8.51 8.74 6.46 11.19 5.21 13.85C4.91 14.49 4.65 15.16 4.43 15.85C3.66 18.31 3.43 21.06 3.76 24.02C3.91 25.36 4.17 26.76 4.55 28.16C4.73 28.84 4.94 29.52 5.16 30.18C5.22 30.34 5.27 30.47 5.33 30.6C5.49 30.97 5.66 31.35 5.53 31.98C5.49 32.19 5.46 32.39 5.42 32.59C5.39 32.8 5.35 33.02 5.3 33.23L5.23 33.57C5.17 33.84 5.11 34.11 5.07 34.38C5.05 34.53 5 34.67 4.95 34.82C4.92 34.9 4.89 34.99 4.88 35.08L4.75 35.74C4.74 35.79 4.74 35.84 4.73 35.89C4.73 35.96 4.72 36.02 4.71 36.09C4.69 36.21 4.65 36.3 4.61 36.37C4.54 36.65 4.47 36.85 4.39 37.06L4.34 37.21C4.31 37.31 4.27 37.41 4.23 37.5C4.17 37.66 4.11 37.81 4.07 37.98C4.01 38.22 3.93 38.44 3.84 38.67L3.74 38.95C3.66 39.16 3.58 39.36 3.52 39.57C3.51 39.62 3.51 39.73 3.5 39.85C3.52 39.84 3.53 39.84 3.55 39.83L3.7 39.79C3.96 39.71 4.25 39.68 4.51 39.64L4.66 39.63C4.9 39.59 5.15 39.52 5.41 39.45C5.6 39.39 5.8 39.34 6 39.3C6.17 39.26 6.34 39.21 6.51 39.17C6.78 39.1 7.05 39.02 7.33 38.98C7.42 38.94 7.47 38.92 7.52 38.9C7.62 38.86 7.73 38.84 7.85 38.82L7.99 38.79C8.09 38.76 8.18 38.73 8.28 38.69C8.38 38.66 8.48 38.63 8.58 38.6C8.94 38.5 9.29 38.38 9.64 38.27C10.16 38.1 10.67 37.94 11.2 37.81C11.37 37.77 11.52 37.73 11.66 37.68C12.16 37.52 12.72 37.34 13.41 37.68C14.09 38.01 14.7 38.28 15.29 38.5C16.55 38.96 17.88 39.29 19.24 39.49C24.34 40.22 29.55 38.99 33.52 36.12C39.27 31.97 42.29 24.29 40.86 17.45C40.24 14.49 38.89 11.78 36.96 9.61C34.71 7.1 31.46 5.12 27.55 3.87C25.32 3.15 23.23 2.8 21.29 2.8Z" fill="#010101" fill-opacity="1.000000" fill-rule="nonzero"/>
		<path id="Vector" d="M8.94 30.44C8.93 29.94 8.66 29.45 8.44 29.02C7.77 27.64 7.39 26.14 7.02 24.65C6.73 23.49 6.44 22.32 6.35 21.13C6.05 16.98 8.28 13 11.21 9.98C11.92 9.25 12.68 8.56 13.58 8.06C14.52 7.55 15.58 7.27 16.62 6.99C18.92 6.38 21.27 5.77 23.65 5.82C24.47 5.84 25.31 5.93 26.07 6.26C26.66 6.52 27.18 6.9 27.73 7.25C28.63 7.81 29.6 8.25 30.51 8.79C32.26 9.83 33.71 11.21 34.93 12.81C35.17 13.13 35.5 13.33 35.75 13.64C36.07 14.04 36.31 14.53 36.5 15C36.89 15.96 37.08 16.99 37.25 18C37.53 19.63 37.82 21.27 37.68 22.91C37.6 23.92 37.36 24.91 37.08 25.88C36.67 27.27 36.18 28.65 35.43 29.9C34.25 31.87 32.45 33.45 30.41 34.57C28.37 35.69 26.09 36.37 23.79 36.77C23.03 36.9 22.27 37 21.51 37.01C19.86 37.05 18.23 36.7 16.68 36.18C16 35.95 15.33 35.69 14.66 35.44C14.37 35.32 14.08 35.2 13.83 35.02C13.77 34.97 13.04 34.41 13.11 34.4C11.03 34.9 9.16 35.47 7.16 36.19C7.16 35.63 7.57 34.87 7.74 34.34C7.94 33.7 8.15 33.05 8.35 32.41C8.53 31.85 8.82 31.25 8.92 30.69C8.94 30.61 8.94 30.52 8.94 30.44Z" fill="#38B47B" fill-opacity="1.000000" fill-rule="nonzero"/>
		<path id="Vector" d="M21.27 37.47C19.82 37.47 18.26 37.18 16.53 36.6C15.85 36.37 15.16 36.12 14.49 35.86C14.2 35.74 13.86 35.6 13.55 35.38C13.28 35.18 13.08 35.02 12.94 34.9C11.06 35.37 9.26 35.91 7.32 36.61C7.17 36.66 7.02 36.64 6.89 36.56C6.77 36.47 6.7 36.33 6.7 36.19C6.7 35.72 6.91 35.2 7.1 34.74C7.17 34.55 7.25 34.37 7.3 34.21L7.91 32.27C7.98 32.06 8.06 31.85 8.14 31.63C8.27 31.29 8.41 30.93 8.47 30.61C8.48 30.56 8.48 30.5 8.48 30.45C8.47 30.11 8.28 29.72 8.1 29.36L8.03 29.21C7.33 27.78 6.94 26.25 6.57 24.76C6.28 23.6 5.98 22.4 5.89 21.16C5.52 16.01 8.86 11.75 10.88 9.67C11.54 9 12.35 8.23 13.36 7.67C14.35 7.12 15.45 6.84 16.5 6.56C18.81 5.95 21.2 5.32 23.66 5.37C24.72 5.39 25.55 5.54 26.26 5.85C26.73 6.06 27.16 6.34 27.57 6.6C27.71 6.69 27.85 6.78 27.98 6.87C28.46 7.17 28.99 7.45 29.49 7.71C29.91 7.94 30.34 8.16 30.75 8.41C32.46 9.42 33.95 10.77 35.3 12.54C35.41 12.68 35.55 12.8 35.68 12.92C35.83 13.06 35.98 13.19 36.12 13.36C36.5 13.83 36.75 14.39 36.93 14.84C37.33 15.83 37.53 16.87 37.71 17.93C37.99 19.56 38.29 21.24 38.14 22.95C38.05 24.08 37.76 25.18 37.52 26.01C37.02 27.75 36.5 29.02 35.84 30.13C34.67 32.06 32.88 33.73 30.64 34.96C28.73 36.01 26.45 36.77 23.87 37.21C22.95 37.37 22.2 37.45 21.52 37.47C21.44 37.47 21.36 37.47 21.27 37.47ZM13.51 34.18C13.65 34.3 14.02 34.59 14.1 34.66C14.32 34.81 14.59 34.93 14.83 35.02C15.49 35.27 16.16 35.53 16.83 35.75C18.55 36.33 20.07 36.6 21.5 36.57C22.14 36.55 22.83 36.48 23.71 36.33C26.19 35.9 28.37 35.18 30.18 34.18C32.28 33.02 33.96 31.46 35.04 29.67C35.66 28.63 36.15 27.43 36.64 25.76C36.86 24.97 37.14 23.93 37.22 22.88C37.36 21.28 37.07 19.65 36.8 18.08C36.63 17.06 36.44 16.08 36.07 15.17C35.92 14.78 35.7 14.3 35.39 13.92C35.29 13.79 35.17 13.69 35.05 13.58C34.89 13.44 34.72 13.28 34.56 13.08C33.28 11.41 31.88 10.13 30.27 9.18C29.87 8.94 29.46 8.72 29.05 8.51C28.53 8.23 28 7.95 27.49 7.63C27.34 7.54 27.2 7.44 27.06 7.35C26.66 7.09 26.29 6.85 25.88 6.67C25.29 6.42 24.58 6.29 23.65 6.27C21.31 6.22 18.99 6.84 16.75 7.43C15.74 7.69 14.71 7.96 13.81 8.46C12.91 8.95 12.16 9.66 11.55 10.29C9.63 12.27 6.47 16.29 6.82 21.1C6.9 22.26 7.19 23.42 7.47 24.55C7.83 25.99 8.2 27.48 8.86 28.82L8.93 28.96C9.15 29.4 9.4 29.89 9.41 30.44C9.41 30.55 9.4 30.66 9.38 30.77C9.31 31.17 9.16 31.56 9.01 31.95C8.93 32.15 8.85 32.35 8.79 32.54L8.18 34.47C8.12 34.65 8.04 34.86 7.95 35.07C7.9 35.21 7.84 35.35 7.79 35.49C9.56 34.88 11.23 34.39 13 33.96C13.21 33.91 13.41 34.01 13.51 34.18Z" fill="#010101" fill-opacity="1.000000" fill-rule="nonzero"/>
		<path id="Vector" d="M31.82 25.8C31.6 25.62 31.3 25.57 31.03 25.5C30.69 25.41 30.38 25.28 30.06 25.15C29.33 24.86 28.63 24.53 27.95 24.14C27.69 24 27.43 23.84 27.13 23.82C26.53 23.79 26.06 24.31 25.73 24.79C25.4 25.28 25.02 25.84 24.43 25.93C24.17 25.97 23.91 25.91 23.67 25.85C21.7 25.31 20.04 24.02 18.72 22.53C18.3 22.05 17.9 21.53 17.69 20.93C17.46 20.28 17.45 19.53 17.82 18.95C18.04 18.6 18.41 18.29 18.44 17.88C18.47 17.54 18.28 17.19 18.17 16.88C18.03 16.5 17.89 16.12 17.75 15.74C17.48 15 17.2 14.26 16.93 13.51C16.88 13.38 16.83 13.23 16.72 13.14C16.58 13.02 16.37 13.01 16.19 13C15.5 12.96 14.75 12.94 14.19 13.33C13.85 13.55 13.63 13.9 13.43 14.25C12.8 15.36 12.18 16.76 12.26 18.05C12.35 19.35 13.15 20.62 13.92 21.66C14.72 22.74 15.69 23.69 16.72 24.58C17.13 24.94 17.54 25.28 17.97 25.62C20.52 27.66 23.32 29.57 26.54 30.3C27.64 30.55 28.81 30.65 29.9 30.33C31.66 29.8 32.63 28.18 32.16 26.43C32.1 26.21 32.02 25.99 31.86 25.83C31.84 25.82 31.83 25.81 31.82 25.8Z" fill="#D6E5E5" fill-opacity="1.000000" fill-rule="nonzero"/>
		<path id="Vector" d="M28.41 30.98C27.81 30.98 27.15 30.9 26.43 30.74C23.01 29.97 20.09 27.9 17.68 25.97C17.25 25.63 16.82 25.28 16.41 24.92C15.18 23.85 14.27 22.9 13.54 21.92C12.78 20.9 11.9 19.54 11.8 18.08C11.73 16.92 12.13 15.6 13.02 14.03C13.24 13.66 13.51 13.24 13.93 12.96C14.64 12.47 15.55 12.51 16.21 12.55C16.42 12.56 16.75 12.58 17.02 12.8C17.23 12.97 17.31 13.21 17.37 13.36L18.68 16.92C18.79 17.2 18.93 17.55 18.9 17.91C18.87 18.34 18.63 18.65 18.41 18.92C18.34 19.01 18.27 19.1 18.21 19.19C17.95 19.61 17.92 20.2 18.12 20.78C18.33 21.36 18.74 21.87 19.07 22.24C20.54 23.89 22.13 24.96 23.79 25.41C23.98 25.47 24.19 25.51 24.35 25.49C24.75 25.42 25.05 24.98 25.34 24.55C25.55 24.24 26.18 23.31 27.16 23.37C27.55 23.4 27.87 23.58 28.16 23.74C28.84 24.12 29.52 24.45 30.23 24.73L30.44 24.81C30.67 24.91 30.9 25 31.14 25.07L31.28 25.1C31.54 25.16 31.85 25.24 32.12 25.46L32.18 25.51C32.44 25.76 32.55 26.09 32.61 26.31C33.13 28.28 32.05 30.15 30.03 30.76C29.53 30.91 29 30.98 28.41 30.98ZM15.63 13.43C15.17 13.43 14.76 13.48 14.45 13.69C14.19 13.87 14 14.17 13.83 14.47C13.04 15.86 12.66 17.06 12.73 18.02C12.8 19.25 13.6 20.47 14.29 21.39C14.98 22.32 15.85 23.22 17.02 24.25C17.43 24.6 17.84 24.94 18.26 25.28C20.59 27.13 23.4 29.13 26.64 29.86C27.88 30.15 28.9 30.16 29.76 29.9C31.31 29.43 32.12 28.05 31.71 26.54C31.68 26.42 31.63 26.25 31.53 26.16L31.82 25.8L31.52 26.14C31.42 26.06 31.25 26.02 31.06 25.98L30.91 25.94C30.62 25.86 30.35 25.76 30.08 25.65L29.88 25.57C29.14 25.27 28.41 24.92 27.72 24.53C27.48 24.4 27.28 24.28 27.1 24.27C26.83 24.26 26.48 24.51 26.11 25.04C25.75 25.58 25.29 26.25 24.5 26.37C24.16 26.43 23.84 26.36 23.54 26.28C21.7 25.78 19.96 24.62 18.37 22.83C17.99 22.39 17.51 21.8 17.25 21.08C16.95 20.24 17.02 19.36 17.43 18.72C17.5 18.6 17.59 18.48 17.68 18.37C17.83 18.17 17.97 18 17.98 17.84C17.99 17.68 17.91 17.46 17.82 17.25L16.5 13.66C16.48 13.61 16.44 13.51 16.41 13.48C16.38 13.46 16.22 13.45 16.16 13.45C15.98 13.44 15.8 13.43 15.63 13.43Z" fill="#010101" fill-opacity="1.000000" fill-rule="nonzero"/>
	</g>
</svg>
