<svg width="240" height="51" viewBox="0 0 240 51" fill="none" xmlns="http://www.w3.org/2000/svg">
<path d="M30.2188 22.0312L29.8438 22.1562C27.1146 22.9062 24.7396 24.0521 22.7188 25.5938C23.7812 26.5312 24.9167 27.3229 26.125 27.9688C27.3333 28.6146 28.6562 29.125 30.0938 29.5L30.4688 29.625L30.6562 30.0312C30.6562 30.0729 30.6875 30.2396 30.75 30.5312C30.8125 30.8229 30.8438 31.2083 30.8438 31.6875C30.8438 32.1042 30.8125 32.4792 30.75 32.8125C30.7083 33.1458 30.6354 33.4688 30.5312 33.7812C30.8854 34.4271 31.1354 35.1042 31.2812 35.8125C31.4271 36.5 31.5 37.0833 31.5 37.5625C31.5 38.3958 31.4167 39.0729 31.25 39.5938C31.0833 40.1146 30.9792 40.3958 30.9375 40.4375L30.7188 40.7812L30.2812 40.8438C26.0312 41.3438 22.4479 42.8958 19.5312 45.5L19.1562 45.6875C18.1146 45.8958 17.1458 46.125 16.25 46.375C15.375 46.6042 14.5312 46.8958 13.7188 47.25C12.9271 47.6042 12.1562 48.0312 11.4062 48.5312C10.6562 49.0312 9.90625 49.6458 9.15625 50.375L8.59375 50.625C8.55208 50.625 8.38542 50.6042 8.09375 50.5625C7.80208 50.5417 7.42708 50.4479 6.96875 50.2812C6.53125 50.1146 6.04167 49.8438 5.5 49.4688C4.97917 49.0938 4.46875 48.5625 3.96875 47.875C3.21875 47.6875 2.59375 47.4375 2.09375 47.125C1.61458 46.7917 1.21875 46.4688 0.90625 46.1562C0.614583 45.8229 0.40625 45.5417 0.28125 45.3125C0.177083 45.0625 0.125 44.9167 0.125 44.875L0 44.5312L0.125 44.2812C0.604167 43.1146 0.958333 41.9375 1.1875 40.75C1.41667 39.5417 1.53125 38.2917 1.53125 37C1.53125 36.125 1.47917 35.25 1.375 34.375C1.29167 33.4792 1.13542 32.5625 0.90625 31.625V31.2188C1.15625 30.1979 1.35417 29.1979 1.5 28.2188C1.66667 27.2188 1.75 26.2188 1.75 25.2188C1.75 24.0938 1.65625 23 1.46875 21.9375C1.28125 20.875 1.03125 19.8125 0.71875 18.75L0.65625 18.5L0.78125 18.25C1.67708 15.9583 2.125 13.6771 2.125 11.4062C2.125 10.4896 2.05208 9.58333 1.90625 8.6875C1.78125 7.79167 1.57292 6.875 1.28125 5.9375L1.15625 5.5625L1.40625 5.25C1.42708 5.22917 1.51042 5.14583 1.65625 5C1.80208 4.83333 2.02083 4.64583 2.3125 4.4375C2.60417 4.20833 2.97917 3.98958 3.4375 3.78125C3.89583 3.55208 4.4375 3.375 5.0625 3.25C5.47917 2.58333 5.94792 2.0625 6.46875 1.6875C6.98958 1.29167 7.47917 1 7.9375 0.8125C8.41667 0.625 8.80208 0.510417 9.09375 0.46875C9.40625 0.40625 9.55208 0.375 9.53125 0.375H9.875L10.125 0.5625C10.7917 1.16667 11.4583 1.6875 12.125 2.125C12.7917 2.5625 13.4792 2.94792 14.1875 3.28125C14.9167 3.59375 15.6875 3.86458 16.5 4.09375C17.3125 4.30208 18.1979 4.5 19.1562 4.6875C19.2604 4.72917 19.3646 4.75 19.4688 4.75C19.5729 4.75 19.6771 4.75 19.7812 4.75H20.0312L20.3125 4.9375C21.1458 5.64583 21.9375 6.26042 22.6875 6.78125C23.4583 7.28125 24.25 7.70833 25.0625 8.0625C25.875 8.39583 26.7292 8.65625 27.625 8.84375C28.5208 9.03125 29.5104 9.15625 30.5938 9.21875H31L31.25 9.59375C31.25 9.61458 31.2812 9.69792 31.3438 9.84375C31.4271 9.98958 31.5104 10.1979 31.5938 10.4688C31.6771 10.7396 31.75 11.0625 31.8125 11.4375C31.8958 11.8125 31.9375 12.2292 31.9375 12.6875C31.9375 13.1042 31.8958 13.5417 31.8125 14C31.75 14.4583 31.625 14.9583 31.4375 15.5C31.125 16.3542 30.7604 17.0521 30.3438 17.5938C30.4479 17.9896 30.5208 18.3646 30.5625 18.7188C30.625 19.0521 30.6562 19.3646 30.6562 19.6562C30.6562 20.2396 30.6042 20.7083 30.5 21.0625C30.3958 21.3958 30.3438 21.5833 30.3438 21.625L30.2188 22.0312ZM9.9375 31.875C9.85417 32.1667 9.65625 32.3125 9.34375 32.3125C8.86458 32.3125 8.3125 32.2396 7.6875 32.0938C7.08333 31.9479 6.42708 31.875 5.71875 31.875C5.19792 31.875 4.66667 31.8958 4.125 31.9375C3.60417 31.9583 3.08333 32.0208 2.5625 32.125C2.77083 33 2.90625 33.8542 2.96875 34.6875C3.05208 35.5208 3.09375 36.3333 3.09375 37.125C3.09375 37.7292 3.0625 38.3333 3 38.9375C2.9375 39.5208 2.85417 40.1146 2.75 40.7188C2.91667 40.3646 3.07292 40.0938 3.21875 39.9062C3.38542 39.7188 3.48958 39.6042 3.53125 39.5625L3.78125 39.2812H4.09375C5.21875 39.2188 6.26042 39.0625 7.21875 38.8125C8.17708 38.5625 9.125 38.2083 10.0625 37.75C10.0625 36.6875 10.1667 35.625 10.375 34.5625C10.5833 33.5 10.8854 32.4375 11.2812 31.375C10.9271 30.3125 10.6667 29.25 10.5 28.1875C10.3333 27.125 10.25 26.0312 10.25 24.9062C10.25 23.8438 10.3229 22.7604 10.4688 21.6562C10.6354 20.5312 10.8854 19.3958 11.2188 18.25C10.6979 16.6042 10.4375 14.8958 10.4375 13.125V12.8125C9.72917 12.5833 9.01042 12.4062 8.28125 12.2812C7.55208 12.1562 6.73958 12.0729 5.84375 12.0312H5.5L5.3125 11.7812C5.27083 11.7604 5.17708 11.6667 5.03125 11.5C4.88542 11.3333 4.72917 11.0938 4.5625 10.7812C4.39583 10.4479 4.23958 10.0417 4.09375 9.5625C3.96875 9.08333 3.90625 8.52083 3.90625 7.875C3.90625 6.875 4.02083 5.97917 4.25 5.1875C3.91667 5.35417 3.64583 5.5 3.4375 5.625C3.25 5.72917 3.09375 5.83333 2.96875 5.9375C3.21875 6.875 3.40625 7.80208 3.53125 8.71875C3.65625 9.61458 3.71875 10.5312 3.71875 11.4688C3.71875 12.4271 3.63542 13.3958 3.46875 14.375C3.32292 15.3542 3.08333 16.3229 2.75 17.2812C3.22917 17.1562 3.69792 17.0625 4.15625 17C4.63542 16.9375 5.08333 16.9062 5.5 16.9062C6.64583 16.9062 7.51042 16.9792 8.09375 17.125C8.67708 17.2708 9.08333 17.4271 9.3125 17.5938C9.58333 17.8021 9.70833 18.0208 9.6875 18.25C9.6875 18.4375 9.61458 18.5938 9.46875 18.7188C9.34375 18.8229 9.19792 18.875 9.03125 18.875C8.98958 18.875 8.92708 18.8542 8.84375 18.8125C8.78125 18.75 8.64583 18.6875 8.4375 18.625C8.22917 18.5625 7.9375 18.5104 7.5625 18.4688C7.1875 18.4062 6.67708 18.375 6.03125 18.375C5.51042 18.375 4.94792 18.4271 4.34375 18.5312C3.73958 18.6354 3.10417 18.8125 2.4375 19.0625C2.72917 20.0625 2.94792 21.0625 3.09375 22.0625C3.26042 23.0625 3.34375 24.0938 3.34375 25.1562C3.34375 26.0312 3.28125 26.9271 3.15625 27.8438C3.05208 28.7396 2.89583 29.6354 2.6875 30.5312C3.02083 30.4896 3.33333 30.4583 3.625 30.4375C3.91667 30.4167 4.22917 30.4062 4.5625 30.4062C5.04167 30.4062 5.59375 30.4375 6.21875 30.5C6.84375 30.5417 7.4375 30.6146 8 30.7188C8.5625 30.8229 9.03125 30.9583 9.40625 31.125C9.80208 31.2708 10 31.4583 10 31.6875C10 31.7292 9.98958 31.7604 9.96875 31.7812C9.94792 31.8021 9.9375 31.8333 9.9375 31.875ZM30.0312 10.6875C29.0312 10.6042 28.125 10.4792 27.3125 10.3125C26.5 10.1458 25.7188 9.91667 24.9688 9.625C24.2396 9.33333 23.5104 8.97917 22.7812 8.5625C22.0729 8.14583 21.3333 7.63542 20.5625 7.03125C20.5208 7.92708 20.3646 8.73958 20.0938 9.46875C19.8438 10.1771 19.5729 10.7812 19.2812 11.2812C19.0104 11.7812 18.75 12.1667 18.5 12.4375C18.2708 12.7083 18.1458 12.8542 18.125 12.875C18 13 17.8542 13.0625 17.6875 13.0625C17.4792 13.0625 17.3125 13 17.1875 12.875C17.0833 12.7292 17.0312 12.5729 17.0312 12.4062C17.0312 12.2396 17.0729 12.1146 17.1562 12.0312C17.1771 12.0104 17.2812 11.875 17.4688 11.625C17.6562 11.3542 17.8542 10.9896 18.0625 10.5312C18.2917 10.0521 18.5 9.5 18.6875 8.875C18.875 8.22917 18.9688 7.51042 18.9688 6.71875C18.9688 6.53125 18.9583 6.41667 18.9375 6.375C18.9375 6.33333 18.8333 6.26042 18.625 6.15625C17.6458 5.96875 16.7396 5.76042 15.9062 5.53125C15.0938 5.28125 14.3125 4.98958 13.5625 4.65625C12.8333 4.32292 12.125 3.94792 11.4375 3.53125C10.75 3.09375 10.0521 2.57292 9.34375 1.96875C9.21875 2.01042 8.9375 2.125 8.5 2.3125C8.08333 2.5 7.64583 2.8125 7.1875 3.25C6.75 3.6875 6.34375 4.29167 5.96875 5.0625C5.61458 5.8125 5.4375 6.77083 5.4375 7.9375C5.4375 8.64583 5.52083 9.20833 5.6875 9.625C5.875 10.0417 6.05208 10.3333 6.21875 10.5C7.19792 10.5417 8.10417 10.6458 8.9375 10.8125C9.77083 10.9583 10.5729 11.1667 11.3438 11.4375C12.1146 11.7083 12.875 12.0417 13.625 12.4375C14.375 12.8125 15.1458 13.25 15.9375 13.75C16.1042 13.8542 16.2708 13.9688 16.4375 14.0938C16.6042 14.1979 16.7812 14.3021 16.9688 14.4062C17.9688 14.4896 18.8854 14.625 19.7188 14.8125C20.5729 15 21.3958 15.2604 22.1875 15.5938C22.9792 15.9271 23.7604 16.3333 24.5312 16.8125C25.3229 17.2917 26.1562 17.8542 27.0312 18.5C27.2396 18.3958 27.5312 18.1979 27.9062 17.9062C28.2812 17.6146 28.6562 17.2292 29.0312 16.75C29.4062 16.25 29.7292 15.6562 30 14.9688C30.2708 14.2812 30.4062 13.4896 30.4062 12.5938C30.4062 12.1562 30.3646 11.7812 30.2812 11.4688C30.2188 11.1354 30.1354 10.875 30.0312 10.6875ZM24 39.4375L23.75 39.0938C23.1458 38.3854 22.5312 37.7396 21.9062 37.1562C21.2812 36.5521 20.6354 36.0104 19.9688 35.5312C18.6979 35.9688 17.375 36.2812 16 36.4688C16.6042 37.1354 17.0625 37.8021 17.375 38.4688C17.7083 39.1354 17.9479 39.75 18.0938 40.3125C18.2396 40.8542 18.3229 41.3125 18.3438 41.6875C18.3646 42.0625 18.375 42.2708 18.375 42.3125C18.375 42.4792 18.3229 42.625 18.2188 42.75C18.1146 42.875 17.9792 42.9375 17.8125 42.9375C17.6042 42.9375 17.4375 42.8854 17.3125 42.7812C17.2083 42.6771 17.1562 42.5417 17.1562 42.375C17.1562 42.3542 17.125 42.1667 17.0625 41.8125C17.0208 41.4583 16.8958 41.0208 16.6875 40.5C16.5 39.9792 16.2083 39.4062 15.8125 38.7812C15.4375 38.1562 14.9271 37.5625 14.2812 37L14.0312 37.1875C13.2188 37.75 12.4375 38.2396 11.6875 38.6562C10.9375 39.0729 10.1771 39.4271 9.40625 39.7188C8.65625 40.0104 7.875 40.25 7.0625 40.4375C6.27083 40.6042 5.41667 40.7188 4.5 40.7812C4.375 40.9688 4.22917 41.2396 4.0625 41.5938C3.91667 41.9479 3.84375 42.3958 3.84375 42.9375C3.84375 44.1458 4.0625 45.1458 4.5 45.9375C4.9375 46.7083 5.42708 47.3229 5.96875 47.7812C6.51042 48.2396 7.02083 48.5625 7.5 48.75C7.97917 48.9375 8.26042 49.0312 8.34375 49.0312C9.84375 47.6354 11.4167 46.5729 13.0625 45.8438C14.7083 45.1146 16.5833 44.5729 18.6875 44.2188C21.7083 41.5938 25.3854 40 29.7188 39.4375C29.7604 39.2292 29.8125 38.9792 29.875 38.6875C29.9375 38.375 29.9688 38.0208 29.9688 37.625C29.9688 37.375 29.9479 37.0938 29.9062 36.7812C29.8854 36.4688 29.8229 36.1354 29.7188 35.7812C29.2396 36.5104 28.6875 37.1146 28.0625 37.5938C27.4375 38.0729 26.8438 38.4583 26.2812 38.75C25.7396 39.0208 25.2812 39.2188 24.9062 39.3438C24.5312 39.4479 24.3646 39.4792 24.4062 39.4375H24ZM26.75 20.2188L26.4375 19.9688C25.5625 19.3229 24.7604 18.7604 24.0312 18.2812C23.3021 17.8021 22.5521 17.4062 21.7812 17.0938C19.8438 18.5729 17.7083 19.6771 15.375 20.4062C16.0625 20.9479 16.6042 21.5104 17 22.0938C17.3958 22.6562 17.6979 23.1875 17.9062 23.6875C18.1146 24.1875 18.2396 24.6146 18.2812 24.9688C18.3438 25.3021 18.375 25.5104 18.375 25.5938C18.375 25.7604 18.3125 25.9062 18.1875 26.0312C18.0625 26.1354 17.9167 26.1875 17.75 26.1875C17.4792 26.1875 17.3021 26.1354 17.2188 26.0312C17.1562 25.9062 17.1042 25.7396 17.0625 25.5312C17.0208 25.3229 16.9688 25.0729 16.9062 24.7812C16.8646 24.4688 16.7396 24.1354 16.5312 23.7812C16.3229 23.4062 16 23 15.5625 22.5625C15.1458 22.125 14.5521 21.6667 13.7812 21.1875C13.4896 21.4792 13.1771 21.7604 12.8438 22.0312C12.5312 22.2812 12.1979 22.5312 11.8438 22.7812C11.8021 23.1771 11.7812 23.5521 11.7812 23.9062C11.7812 24.2604 11.7812 24.6146 11.7812 24.9688C11.7812 26.8854 12.0417 28.7188 12.5625 30.4688C13.5833 29.7604 14.6354 29.1354 15.7188 28.5938C16.8021 28.0521 17.8646 27.6042 18.9062 27.25C20.2188 25.75 21.7188 24.4792 23.4062 23.4375C25.1146 22.375 27 21.5208 29.0625 20.875C29.1042 20.7292 29.125 20.5833 29.125 20.4375C29.125 20.2708 29.125 20.0938 29.125 19.9062C29.125 19.7812 29.1146 19.6458 29.0938 19.5C29.0729 19.3333 29.0625 19.1667 29.0625 19C28.5833 19.3958 28.1562 19.6771 27.7812 19.8438C27.4062 20.0104 27.1979 20.0938 27.1562 20.0938L26.75 20.2188ZM19.8438 28.2812L19.5312 28.5312C18.6979 28.8854 17.8542 29.25 17 29.625C16.1458 30 15.3021 30.4479 14.4688 30.9688L14.6562 31.0938C16.5521 31.6771 18.3333 32.5312 20 33.6562C21.6875 34.7604 23.2188 36.1458 24.5938 37.8125C24.8646 37.75 25.2604 37.5729 25.7812 37.2812C26.3229 36.9896 26.8542 36.5938 27.375 36.0938C27.8958 35.5729 28.3438 34.9479 28.7188 34.2188C29.1146 33.4688 29.3125 32.625 29.3125 31.6875C29.3125 31.5208 29.3021 31.3646 29.2812 31.2188C29.2604 31.0729 29.25 30.9479 29.25 30.8438C26.3125 29.9271 23.7292 28.5 21.5 26.5625L19.8438 28.2812ZM16.2812 15.75C15.4688 15.2917 14.7188 14.8646 14.0312 14.4688C13.3438 14.0729 12.6771 13.7292 12.0312 13.4375C12.0312 14.2083 12.0938 14.9792 12.2188 15.75C12.3438 16.5 12.5208 17.2396 12.75 17.9688V18.4375C12.6458 18.8125 12.5521 19.1771 12.4688 19.5312C12.3854 19.8854 12.3125 20.2396 12.25 20.5938L13.125 19.7188L13.3125 19.4688L13.5938 19.4062C14.8021 19.1146 15.9479 18.7396 17.0312 18.2812C18.1146 17.8021 19.1562 17.2083 20.1562 16.5C19.0938 16.25 17.9271 16.0625 16.6562 15.9375L16.2812 15.75ZM12.625 32.125C12.1042 33.6875 11.7812 35.2708 11.6562 36.875C11.9479 36.7083 12.2292 36.5417 12.5 36.375C12.7917 36.2083 13.0833 36.0104 13.375 35.7812L13.8438 35.4062L14.0312 35.1875L14.3438 35.125C15.0104 35.0833 15.6771 35.0104 16.3438 34.9062C17.0312 34.7812 17.7083 34.625 18.375 34.4375C17 33.6667 15.5521 33.0208 14.0312 32.5L13.6562 32.3125L13.125 31.8125C13.0208 31.8542 12.9375 31.9062 12.875 31.9688C12.8125 32.0104 12.7292 32.0625 12.625 32.125ZM1.75 44.5312C1.8125 44.6771 1.92708 44.8542 2.09375 45.0625C2.26042 45.25 2.5 45.4583 2.8125 45.6875C2.625 45.1875 2.48958 44.7188 2.40625 44.2812C2.34375 43.8229 2.3125 43.3958 2.3125 43V42.8125L1.75 44.5312ZM47.5 5.875L47.3125 6.28125C46.9375 7.42708 46.6458 8.55208 46.4375 9.65625C46.25 10.7396 46.1562 11.8333 46.1562 12.9375C46.1562 13.8125 46.2083 14.6667 46.3125 15.5C46.4375 16.3125 46.625 17.1354 46.875 17.9688V18.4375C46.2292 20.7083 45.9062 22.8854 45.9062 24.9688C45.9062 26.0312 45.9896 27.0729 46.1562 28.0938C46.3229 29.0938 46.5833 30.0938 46.9375 31.0938L47.0625 31.375L46.9375 31.625C46.5417 32.6875 46.25 33.7604 46.0625 34.8438C45.875 35.9062 45.7812 36.9896 45.7812 38.0938C45.7812 39.1771 45.8646 40.25 46.0312 41.3125C46.1979 42.3542 46.4792 43.4062 46.875 44.4688L47 44.8125L46.875 45.0625C46.8542 45.1042 46.7396 45.2917 46.5312 45.625C46.3229 45.9375 45.9792 46.2812 45.5 46.6562C45.0208 47.0312 44.3646 47.375 43.5312 47.6875C42.7188 47.9792 41.6979 48.125 40.4688 48.125C39.2396 48.125 38.2188 47.9688 37.4062 47.6562C36.6146 47.3229 35.9792 46.9583 35.5 46.5625C35.0417 46.1458 34.7188 45.7708 34.5312 45.4375C34.3438 45.1042 34.25 44.9167 34.25 44.875L34.125 44.5312L34.25 44.2812C34.7292 43.1146 35.0833 41.9375 35.3125 40.75C35.5417 39.5417 35.6562 38.2917 35.6562 37C35.6562 36.125 35.6042 35.25 35.5 34.375C35.4167 33.4792 35.2604 32.5625 35.0312 31.625V31.2188C35.2812 30.1979 35.4792 29.1979 35.625 28.2188C35.7917 27.2188 35.875 26.2188 35.875 25.2188C35.875 24.0938 35.7812 23 35.5938 21.9375C35.4062 20.875 35.1562 19.8125 34.8438 18.75L34.7812 18.5L34.9062 18.25C35.8021 15.9583 36.25 13.6771 36.25 11.4062C36.25 10.4896 36.1771 9.58333 36.0312 8.6875C35.9062 7.79167 35.6979 6.875 35.4062 5.9375L35.2812 5.5625L35.5312 5.25C35.5521 5.22917 35.6771 5.10417 35.9062 4.875C36.1354 4.625 36.4792 4.36458 36.9375 4.09375C37.4167 3.80208 38.0104 3.55208 38.7188 3.34375C39.4271 3.11458 40.2708 3 41.25 3C42.25 3 43.1146 3.13542 43.8438 3.40625C44.5729 3.65625 45.1771 3.9375 45.6562 4.25C46.1562 4.5625 46.5312 4.85417 46.7812 5.125C47.0312 5.39583 47.1667 5.54167 47.1875 5.5625L47.5 5.875ZM45.7188 6.21875C45.5729 6.09375 45.375 5.9375 45.125 5.75C44.875 5.5625 44.5625 5.38542 44.1875 5.21875C43.8125 5.03125 43.375 4.88542 42.875 4.78125C42.3958 4.65625 41.8542 4.59375 41.25 4.59375C40.6667 4.59375 40.1458 4.64583 39.6875 4.75C39.2292 4.85417 38.8229 4.97917 38.4688 5.125C38.1354 5.25 37.8542 5.39583 37.625 5.5625C37.3958 5.70833 37.2188 5.83333 37.0938 5.9375C37.3438 6.875 37.5312 7.80208 37.6562 8.71875C37.7812 9.61458 37.8438 10.5312 37.8438 11.4688C37.8438 12.4271 37.7604 13.3958 37.5938 14.375C37.4479 15.3542 37.2083 16.3229 36.875 17.2812C37.3542 17.1562 37.8229 17.0625 38.2812 17C38.7604 16.9375 39.2083 16.9062 39.625 16.9062C40.7708 16.9062 41.6354 16.9792 42.2188 17.125C42.8021 17.2708 43.2083 17.4271 43.4375 17.5938C43.7083 17.8021 43.8333 18.0208 43.8125 18.25C43.8125 18.4375 43.7396 18.5938 43.5938 18.7188C43.4688 18.8229 43.3229 18.875 43.1562 18.875C43.1146 18.875 43.0521 18.8542 42.9688 18.8125C42.9062 18.75 42.7708 18.6875 42.5625 18.625C42.3542 18.5625 42.0625 18.5104 41.6875 18.4688C41.3125 18.4062 40.8021 18.375 40.1562 18.375C39.6354 18.375 39.0729 18.4271 38.4688 18.5312C37.8646 18.6354 37.2292 18.8125 36.5625 19.0625C36.8542 20.0625 37.0729 21.0625 37.2188 22.0625C37.3854 23.0625 37.4688 24.0938 37.4688 25.1562C37.4688 26.0312 37.4062 26.9271 37.2812 27.8438C37.1771 28.7396 37.0208 29.6354 36.8125 30.5312C37.1458 30.4896 37.4583 30.4583 37.75 30.4375C38.0417 30.4167 38.3542 30.4062 38.6875 30.4062C39.1667 30.4062 39.7188 30.4375 40.3438 30.5C40.9688 30.5417 41.5625 30.6146 42.125 30.7188C42.6875 30.8229 43.1562 30.9583 43.5312 31.125C43.9271 31.2708 44.125 31.4583 44.125 31.6875C44.125 31.8542 44.0521 32 43.9062 32.125C43.7812 32.25 43.6354 32.3125 43.4688 32.3125C42.9896 32.3125 42.4375 32.2396 41.8125 32.0938C41.2083 31.9479 40.5521 31.875 39.8438 31.875C39.3229 31.875 38.7917 31.8958 38.25 31.9375C37.7292 31.9583 37.2083 32.0208 36.6875 32.125C36.8958 33 37.0312 33.8542 37.0938 34.6875C37.1771 35.5208 37.2188 36.3333 37.2188 37.125C37.2188 39.6667 36.7708 42.1354 35.875 44.5312C35.9583 44.6771 36.0938 44.875 36.2812 45.125C36.4896 45.3542 36.7708 45.5833 37.125 45.8125C37.5 46.0208 37.9583 46.2083 38.5 46.375C39.0417 46.5208 39.6979 46.5938 40.4688 46.5938C41.2396 46.5938 41.9062 46.5208 42.4688 46.375C43.0312 46.2292 43.5 46.0625 43.875 45.875C44.2708 45.6667 44.5729 45.4583 44.7812 45.25C45.0104 45.0208 45.1771 44.8333 45.2812 44.6875C44.5521 42.4583 44.1875 40.3021 44.1875 38.2188C44.1875 37.0521 44.2812 35.9062 44.4688 34.7812C44.6771 33.6354 44.9896 32.5 45.4062 31.375C45.0521 30.3125 44.7917 29.25 44.625 28.1875C44.4583 27.125 44.375 26.0312 44.375 24.9062C44.375 23.8438 44.4479 22.7604 44.5938 21.6562C44.7604 20.5312 45.0104 19.3958 45.3438 18.25C44.8229 16.5417 44.5625 14.7917 44.5625 13C44.5625 10.7292 44.9479 8.46875 45.7188 6.21875ZM77.8125 38.7812C77.8125 38.8438 77.8021 39.0521 77.7812 39.4062C77.7604 39.7604 77.6458 40.2083 77.4375 40.75C77.25 41.2708 76.9271 41.8438 76.4688 42.4688C76.0104 43.0938 75.3333 43.6979 74.4375 44.2812C74.2083 44.7604 73.9792 45.1354 73.75 45.4062C73.5208 45.6771 73.3854 45.8333 73.3438 45.875L73.0938 46.2188L72.625 46.1562C71.8958 46.0521 71.25 45.9688 70.6875 45.9062C70.1458 45.8438 69.6458 45.8125 69.1875 45.8125C68.7083 45.8125 68.2604 45.8438 67.8438 45.9062C67.4271 45.9688 67 46.0625 66.5625 46.1875C66.1458 46.3125 65.6979 46.4792 65.2188 46.6875C64.7604 46.875 64.25 47.1042 63.6875 47.375L63.2188 47.4375C62.6771 47.4375 62.1458 47.4167 61.625 47.375C61.125 47.3125 60.6771 47.2812 60.2812 47.2812C59.7188 47.2812 59.2083 47.3125 58.75 47.375C58.3125 47.4375 57.875 47.5417 57.4375 47.6875C57 47.8333 56.5312 48.0208 56.0312 48.25C55.5312 48.4792 54.9479 48.7604 54.2812 49.0938L53.9375 49.2812L53.6875 49.2188C52.8958 48.9479 52.1979 48.5312 51.5938 47.9688C51.0729 47.4896 50.5938 46.8125 50.1562 45.9375C49.7396 45.0625 49.5312 43.9167 49.5312 42.5C49.5312 41.625 49.6458 40.8854 49.875 40.2812C50.125 39.6771 50.3958 39.1875 50.6875 38.8125C51 38.4375 51.2812 38.1667 51.5312 38C51.7812 37.8125 51.9271 37.7083 51.9688 37.6875L52.2188 37.5L52.5312 37.5625C53.1771 37.6875 53.7396 37.7812 54.2188 37.8438C54.6979 37.9062 55.1458 37.9375 55.5625 37.9375C55.9375 37.9375 56.3021 37.9167 56.6562 37.875C57.0312 37.8125 57.4271 37.7292 57.8438 37.625C58.2604 37.5 58.7188 37.3542 59.2188 37.1875C59.7396 37 60.3542 36.7812 61.0625 36.5312L61.3125 36.4062L61.5625 36.4688C62.5417 36.6771 63.4167 36.8125 64.1875 36.875C63.9375 36.4792 63.6354 36.0938 63.2812 35.7188C62.9479 35.3229 62.5938 34.9167 62.2188 34.5L62 34.1875C61.7083 33.125 61.3854 32.1562 61.0312 31.2812C60.6771 30.3854 60.2604 29.5521 59.7812 28.7812C59.3229 28.0104 58.8021 27.2812 58.2188 26.5938C57.6354 25.9062 56.9792 25.2292 56.25 24.5625L56 24.375V24.125C55.6458 22 55 20.0625 54.0625 18.3125C53.125 16.5417 51.875 14.9375 50.3125 13.5L50.0312 13.25V12.875C50.0312 12.8542 50.0521 12.7604 50.0938 12.5938C50.1354 12.4271 50.2083 12.2083 50.3125 11.9375C50.4167 11.6667 50.5729 11.3542 50.7812 11C50.9896 10.6458 51.2604 10.2812 51.5938 9.90625C51.5521 9.80208 51.5312 9.70833 51.5312 9.625C51.5312 9.54167 51.5312 9.44792 51.5312 9.34375C51.5312 8.46875 51.6458 7.72917 51.875 7.125C52.125 6.52083 52.3958 6.03125 52.6875 5.65625C52.9792 5.28125 53.25 5.01042 53.5 4.84375C53.75 4.65625 53.8958 4.55208 53.9375 4.53125L54.2188 4.40625L54.5312 4.46875C55.6979 4.73958 56.6771 4.875 57.4688 4.875C57.8438 4.875 58.1979 4.85417 58.5312 4.8125C58.8646 4.75 59.2188 4.66667 59.5938 4.5625C59.9896 4.4375 60.4167 4.30208 60.875 4.15625C61.3333 4.01042 61.8646 3.84375 62.4688 3.65625C62.5729 3.61458 62.6667 3.58333 62.75 3.5625C62.8333 3.52083 62.9271 3.46875 63.0312 3.40625L63.2812 3.25L63.5625 3.3125C64.3333 3.47917 65.0104 3.60417 65.5938 3.6875C66.1979 3.75 66.75 3.78125 67.25 3.78125C68.1875 3.78125 69.0938 3.64583 69.9688 3.375C70.8438 3.10417 71.9062 2.6875 73.1562 2.125L73.5312 1.90625L73.9062 2.125C73.9271 2.14583 74.0625 2.23958 74.3125 2.40625C74.5833 2.57292 74.8854 2.84375 75.2188 3.21875C75.5521 3.59375 75.8854 4.08333 76.2188 4.6875C76.5521 5.29167 76.7917 6.03125 76.9375 6.90625C76.9792 7.13542 77.0104 7.375 77.0312 7.625C77.0521 7.85417 77.0625 8.0625 77.0625 8.25C77.0625 8.95833 76.9792 9.59375 76.8125 10.1562C76.6458 10.6979 76.4583 11.1667 76.25 11.5625C76.0417 11.9375 75.8438 12.2396 75.6562 12.4688C75.4896 12.6771 75.3958 12.7917 75.375 12.8125L75.0625 13.0625L74.625 13C73.9167 12.8958 73.2812 12.8229 72.7188 12.7812C72.1771 12.7188 71.6771 12.6875 71.2188 12.6875C70.7396 12.6875 70.2917 12.7188 69.875 12.7812C69.4583 12.8229 69.0312 12.9062 68.5938 13.0312C68.1771 13.1562 67.7292 13.3229 67.25 13.5312C66.7708 13.7188 66.2396 13.9479 65.6562 14.2188L65.4688 14.3438L65.2188 14.2812C64.6979 14.2812 64.2292 14.2708 63.8125 14.25C63.3958 14.2292 63.0104 14.2188 62.6562 14.2188C63.0729 14.9271 63.5312 15.6042 64.0312 16.25C64.5521 16.875 65.1354 17.4792 65.7812 18.0625L65.9688 18.375C66.2812 19.5 66.6146 20.5312 66.9688 21.4688C67.3229 22.3854 67.7292 23.2396 68.1875 24.0312C68.6458 24.8021 69.1667 25.5312 69.75 26.2188C70.3542 26.9062 71.0417 27.5729 71.8125 28.2188L72.0625 28.6875C72.2708 29.7708 72.5104 30.75 72.7812 31.625C73.0729 32.4792 73.4271 33.2812 73.8438 34.0312C74.2812 34.7812 74.7917 35.5 75.375 36.1875C75.9792 36.875 76.7083 37.5729 77.5625 38.2812L77.75 38.4688L77.8125 38.7812ZM76.2812 39.1562C75.4271 38.4062 74.6979 37.6771 74.0938 36.9688C73.4896 36.2604 72.9688 35.5208 72.5312 34.75C72.0938 33.9583 71.7292 33.125 71.4375 32.25C71.1458 31.3542 70.8854 30.3542 70.6562 29.25C69.8646 28.5417 69.1667 27.8333 68.5625 27.125C67.9583 26.3958 67.4062 25.625 66.9062 24.8125C66.4271 24 65.9896 23.125 65.5938 22.1875C65.2188 21.2292 64.875 20.1667 64.5625 19C63.1458 17.625 61.9688 16.0833 61.0312 14.375C60.1146 12.6667 59.4167 10.7812 58.9375 8.71875C58.6667 8.61458 58.2604 8.5625 57.7188 8.5625C56.7812 8.5625 55.9479 8.73958 55.2188 9.09375C54.5104 9.44792 53.9062 9.85417 53.4062 10.3125C52.9062 10.7708 52.5104 11.2292 52.2188 11.6875C51.9271 12.1458 51.7396 12.4792 51.6562 12.6875C53.0729 14.0625 54.2292 15.5521 55.125 17.1562C56.0208 18.7396 56.6979 20.4688 57.1562 22.3438C57.7604 21.6979 58.3854 21.1875 59.0312 20.8125C59.6771 20.4167 60.2604 20.125 60.7812 19.9375C61.3229 19.7292 61.7708 19.6042 62.125 19.5625C62.4792 19.5 62.6771 19.4688 62.7188 19.4688H62.7812C62.9479 19.4688 63.0833 19.5208 63.1875 19.625C63.3125 19.7292 63.3958 19.8438 63.4375 19.9688C63.4375 20.1354 63.3854 20.2917 63.2812 20.4375C63.1771 20.5625 63.0312 20.6458 62.8438 20.6875C62.8229 20.6875 62.6458 20.7292 62.3125 20.8125C62 20.8958 61.5938 21.0521 61.0938 21.2812C60.5938 21.5104 60.0417 21.8438 59.4375 22.2812C58.8542 22.6979 58.3021 23.25 57.7812 23.9375C58.4479 24.6042 59.0417 25.2604 59.5625 25.9062C60.1042 26.5521 60.5833 27.2292 61 27.9375C61.4375 28.625 61.8229 29.3646 62.1562 30.1562C62.5104 30.9271 62.8438 31.7812 63.1562 32.7188C63.5729 32.4062 64.0521 32.0833 64.5938 31.75C65.1562 31.3958 65.7188 31.0833 66.2812 30.8125C66.8438 30.5208 67.375 30.2812 67.875 30.0938C68.3958 29.9062 68.8333 29.8125 69.1875 29.8125C69.375 29.8125 69.5208 29.875 69.625 30C69.75 30.1042 69.8125 30.2396 69.8125 30.4062C69.8125 30.5729 69.7708 30.7188 69.6875 30.8438C69.6042 30.9688 69.5 31.0312 69.375 31.0312C68.9792 31.1354 68.5417 31.2917 68.0625 31.5C67.6042 31.6875 67.125 31.9167 66.625 32.1875C66.1458 32.4375 65.6667 32.7292 65.1875 33.0625C64.7292 33.3958 64.2917 33.75 63.875 34.125C64.625 34.9583 65.25 35.7396 65.75 36.4688C66.2708 37.1979 66.6979 37.9375 67.0312 38.6875C67.3646 39.4167 67.6354 40.1875 67.8438 41C68.0521 41.8125 68.2396 42.7188 68.4062 43.7188C68.5312 43.8229 68.75 43.9271 69.0625 44.0312C69.375 44.1146 69.7396 44.1562 70.1562 44.1562C71.3438 44.1562 72.3229 43.9167 73.0938 43.4375C73.8646 42.9375 74.4792 42.3854 74.9375 41.7812C75.4167 41.1771 75.75 40.6146 75.9375 40.0938C76.1458 39.5521 76.2604 39.2396 76.2812 39.1562ZM62.5312 12.6875C62.9062 12.6875 63.3125 12.7083 63.75 12.75C64.2083 12.7917 64.6979 12.8125 65.2188 12.8125C65.8229 12.5417 66.375 12.3125 66.875 12.125C67.3958 11.9167 67.8854 11.75 68.3438 11.625C68.8021 11.5 69.25 11.4062 69.6875 11.3438C70.125 11.2812 70.5938 11.25 71.0938 11.25C71.5729 11.25 72.0938 11.2708 72.6562 11.3125C73.2188 11.3542 73.8333 11.4271 74.5 11.5312C74.6667 11.2604 74.8646 10.8438 75.0938 10.2812C75.3438 9.71875 75.4688 9.04167 75.4688 8.25C75.4688 7.5625 75.3854 6.95833 75.2188 6.4375C75.0521 5.89583 74.8542 5.42708 74.625 5.03125C74.3958 4.63542 74.1667 4.32292 73.9375 4.09375C73.7083 3.86458 73.5312 3.69792 73.4062 3.59375C72.7396 3.88542 72.1562 4.13542 71.6562 4.34375C71.1562 4.53125 70.6771 4.6875 70.2188 4.8125C69.7812 4.9375 69.3438 5.03125 68.9062 5.09375C68.4896 5.15625 68.0312 5.1875 67.5312 5.1875C66.8021 5.1875 65.9062 5.125 64.8438 5C65.1979 5.70833 65.4271 6.39583 65.5312 7.0625C65.6562 7.70833 65.7188 8.30208 65.7188 8.84375C65.7188 9.57292 65.6875 10.1146 65.625 10.4688C65.5625 10.8229 65.4896 11.0833 65.4062 11.25C65.3229 11.3958 65.2292 11.4688 65.125 11.4688C65.0417 11.4688 64.9688 11.4688 64.9062 11.4688C64.7396 11.4688 64.5833 11.4062 64.4375 11.2812C64.3125 11.1562 64.25 11 64.25 10.8125C64.25 10.7917 64.2708 10.7188 64.3125 10.5938C64.3542 10.4688 64.375 10.0729 64.375 9.40625C64.375 8.86458 64.2812 8.21875 64.0938 7.46875C63.9271 6.69792 63.5729 5.89583 63.0312 5.0625C62.9688 5.0625 62.9167 5.07292 62.875 5.09375C62.8333 5.11458 62.7812 5.14583 62.7188 5.1875C62.1146 5.375 61.5729 5.54167 61.0938 5.6875C60.6146 5.8125 60.1771 5.92708 59.7812 6.03125C59.3854 6.11458 59 6.17708 58.625 6.21875C58.2708 6.26042 57.9062 6.28125 57.5312 6.28125C57.1146 6.28125 56.6667 6.26042 56.1875 6.21875C55.7292 6.17708 55.1771 6.08333 54.5312 5.9375C54.3438 6.10417 54.0833 6.39583 53.75 6.8125C53.4375 7.20833 53.2292 7.77083 53.125 8.5L53.6875 8.1875C54.4167 7.72917 55.125 7.42708 55.8125 7.28125C56.5 7.11458 57.1354 7.03125 57.7188 7.03125C58.3646 7.03125 58.875 7.10417 59.25 7.25C59.6458 7.375 59.8646 7.4375 59.9062 7.4375L60.2812 7.5625L60.3438 7.9375C60.5104 8.8125 60.7188 9.64583 60.9688 10.4375C61.2188 11.2083 61.5208 11.9583 61.875 12.6875H62.5312ZM67 44.2812C66.8125 43.0938 66.5729 42.0312 66.2812 41.0938C66.0104 40.1562 65.6354 39.2396 65.1562 38.3438C64.4688 38.3438 63.6771 38.2812 62.7812 38.1562C63.1771 38.8646 63.4375 39.5625 63.5625 40.25C63.6875 40.9167 63.75 41.5208 63.75 42.0625C63.75 42.75 63.7188 43.2708 63.6562 43.625C63.5938 43.9583 63.5208 44.1979 63.4375 44.3438C63.3542 44.4688 63.25 44.5312 63.125 44.5312C63.0208 44.5312 62.9271 44.5312 62.8438 44.5312C62.6562 44.5312 62.5 44.4792 62.375 44.375C62.2708 44.2708 62.2188 44.1562 62.2188 44.0312C62.2188 43.9896 62.2188 43.9583 62.2188 43.9375C62.2396 43.9167 62.2604 43.8646 62.2812 43.7812C62.3021 43.6979 62.3125 43.5729 62.3125 43.4062C62.3333 43.2396 62.3438 42.9792 62.3438 42.625C62.3438 42.0833 62.2604 41.4271 62.0938 40.6562C61.9479 39.8646 61.5833 39.0312 61 38.1562C60.9167 38.2396 60.8229 38.2812 60.7188 38.2812C60.1146 38.4688 59.5729 38.6354 59.0938 38.7812C58.6354 38.9271 58.2083 39.0521 57.8125 39.1562C57.4167 39.2396 57.0312 39.3125 56.6562 39.375C56.3021 39.4167 55.9375 39.4375 55.5625 39.4375C55.1458 39.4375 54.6875 39.4167 54.1875 39.375C53.6875 39.3333 53.1146 39.2396 52.4688 39.0938C52.3646 39.1771 52.2292 39.3125 52.0625 39.5C51.8958 39.6667 51.7396 39.8854 51.5938 40.1562C51.4479 40.4271 51.3229 40.7604 51.2188 41.1562C51.1146 41.5312 51.0625 41.9792 51.0625 42.5C51.0625 43.4167 51.1771 44.1979 51.4062 44.8438C51.6562 45.4688 51.9375 45.9896 52.25 46.4062C52.5625 46.8021 52.8646 47.1042 53.1562 47.3125C53.4688 47.5208 53.6875 47.6458 53.8125 47.6875C54.5208 47.3333 55.1458 47.0417 55.6875 46.8125C56.2292 46.5625 56.7292 46.3646 57.1875 46.2188C57.6667 46.0729 58.1354 45.9688 58.5938 45.9062C59.0729 45.8438 59.6146 45.8125 60.2188 45.8125C60.6354 45.8125 61.0938 45.8333 61.5938 45.875C62.1146 45.9167 62.6562 45.9375 63.2188 45.9375C64.0104 45.5833 64.6979 45.3125 65.2812 45.125C65.8854 44.9167 66.4792 44.7396 67.0625 44.5938L67 44.5312V44.2812ZM103.062 25.9062C103.062 26.8438 102.938 27.6667 102.688 28.375C102.438 29.0625 102.156 29.6458 101.844 30.125C101.531 30.6042 101.24 30.9688 100.969 31.2188C100.719 31.4688 100.583 31.6042 100.562 31.625L100.25 31.875L99.8125 31.75C98.6458 31.3542 97.6146 31.0625 96.7188 30.875C95.8438 30.6875 94.9688 30.5938 94.0938 30.5938C93.4479 30.5938 92.8125 30.6562 92.1875 30.7812L92.375 31.1562L92.5 31.4375L92.375 31.6875C91.875 33.1042 91.5312 34.5104 91.3438 35.9062C91.6771 35.8229 92.0521 35.75 92.4688 35.6875C92.8854 35.625 93.2812 35.5729 93.6562 35.5312C94.0312 35.4896 94.3438 35.4583 94.5938 35.4375C94.8438 35.4167 94.9792 35.4062 95 35.4062L95.25 35.3125L95.5 35.4688C96.6875 35.9479 97.6979 36.3125 98.5312 36.5625C99.3646 36.8125 100.208 36.9375 101.062 36.9375C101.646 36.9375 102.281 36.875 102.969 36.75C103.656 36.625 104.438 36.4479 105.312 36.2188L105.688 36.0938L106 36.3438C106.021 36.3854 106.135 36.5208 106.344 36.75C106.573 36.9583 106.812 37.2917 107.062 37.75C107.312 38.1875 107.542 38.75 107.75 39.4375C107.958 40.1042 108.062 40.9062 108.062 41.8438C108.042 42.7812 107.896 43.5938 107.625 44.2812C107.354 44.9688 107.062 45.5521 106.75 46.0312C106.438 46.4896 106.146 46.8438 105.875 47.0938C105.604 47.3438 105.458 47.4792 105.438 47.5L105.031 47.6875L104.656 47.5625C103.427 47.1042 102.406 46.7812 101.594 46.5938C100.781 46.3854 99.9896 46.2812 99.2188 46.2812C98.6771 46.2812 98.1146 46.3333 97.5312 46.4375C96.9479 46.5208 96.2708 46.6562 95.5 46.8438H95.0625C94.4792 46.7396 93.8958 46.625 93.3125 46.5C92.75 46.3542 92.1771 46.2188 91.5938 46.0938C91.3854 46.3229 91.1146 46.5729 90.7812 46.8438C90.4688 47.0938 90.0729 47.3229 89.5938 47.5312C89.1354 47.7396 88.5938 47.9062 87.9688 48.0312C87.3646 48.1771 86.6771 48.25 85.9062 48.25C84.6771 48.25 83.6562 48.0833 82.8438 47.75C82.0521 47.4167 81.4167 47.0521 80.9375 46.6562C80.4792 46.2396 80.1562 45.8646 79.9688 45.5312C79.7812 45.1771 79.6875 44.9792 79.6875 44.9375L79.5625 44.6875L79.6875 44.3438C80.1667 43.1979 80.5208 42.0208 80.75 40.8125C80.9792 39.6042 81.0938 38.375 81.0938 37.125C81.0938 36.25 81.0417 35.3646 80.9375 34.4688C80.8542 33.5729 80.6979 32.6458 80.4688 31.6875V31.2812C80.7188 30.2604 80.9167 29.2604 81.0625 28.2812C81.2292 27.2812 81.3125 26.2812 81.3125 25.2812C81.3125 24.1771 81.2188 23.0938 81.0312 22.0312C80.8438 20.9688 80.5938 19.9167 80.2812 18.875L80.2188 18.5625L80.3438 18.3125C80.8021 17.1875 81.1354 16.0625 81.3438 14.9375C81.5729 13.7917 81.6875 12.6562 81.6875 11.5312C81.6875 10.6146 81.6146 9.70833 81.4688 8.8125C81.3438 7.89583 81.1354 6.96875 80.8438 6.03125L80.7188 5.625L80.9688 5.3125C80.9896 5.29167 81.1146 5.16667 81.3438 4.9375C81.5729 4.6875 81.9167 4.42708 82.375 4.15625C82.8542 3.86458 83.4479 3.61458 84.1562 3.40625C84.8646 3.17708 85.7083 3.0625 86.6875 3.0625C87.8125 3.0625 88.7708 3.21875 89.5625 3.53125C90.3542 3.84375 90.9896 4.17708 91.4688 4.53125C92.0729 4.46875 92.7083 4.375 93.375 4.25C94.0417 4.125 94.7083 3.94792 95.375 3.71875L95.625 3.59375L95.9688 3.65625C96.9688 3.96875 97.8333 4.20833 98.5625 4.375C99.3125 4.52083 100.021 4.59375 100.688 4.59375C101.417 4.59375 102.177 4.5 102.969 4.3125C103.76 4.125 104.688 3.84375 105.75 3.46875L106.125 3.3125L106.469 3.53125C106.49 3.55208 106.625 3.66667 106.875 3.875C107.125 4.08333 107.396 4.40625 107.688 4.84375C107.979 5.26042 108.25 5.80208 108.5 6.46875C108.771 7.11458 108.938 7.90625 109 8.84375V9.40625C109 10.2396 108.896 10.9792 108.688 11.625C108.479 12.2708 108.24 12.8229 107.969 13.2812C107.719 13.7188 107.479 14.0521 107.25 14.2812C107.042 14.5104 106.927 14.6354 106.906 14.6562L106.594 14.9062L106.125 14.7812C105.125 14.5521 104.271 14.3854 103.562 14.2812C102.854 14.1562 102.198 14.0938 101.594 14.0938C100.885 14.0938 100.177 14.1771 99.4688 14.3438C98.7812 14.4896 97.9479 14.7188 96.9688 15.0312L96.5312 15.0938C95.6562 14.9271 94.8125 14.8021 94 14.7188C93.2083 14.6354 92.4062 14.5938 91.5938 14.5938C91.6562 15.1771 91.7396 15.7604 91.8438 16.3438C91.9688 16.9062 92.125 17.4792 92.3125 18.0625V18.5C92.1875 18.875 92.0833 19.25 92 19.625C91.9375 19.9792 91.875 20.3542 91.8125 20.75C92.4167 20.9167 92.9792 21.0312 93.5 21.0938C94.0417 21.1562 94.6042 21.1875 95.1875 21.1875C95.9583 21.1875 96.7396 21.125 97.5312 21C98.3229 20.8542 99.1875 20.6354 100.125 20.3438L100.5 20.2188L100.812 20.4688C100.833 20.4896 100.958 20.6146 101.188 20.8438C101.438 21.0521 101.698 21.3854 101.969 21.8438C102.26 22.2812 102.51 22.8438 102.719 23.5312C102.948 24.1979 103.062 24.9896 103.062 25.9062ZM91.1562 6.28125C91.0104 6.15625 90.8125 6 90.5625 5.8125C90.3125 5.625 90 5.44792 89.625 5.28125C89.25 5.11458 88.8125 4.97917 88.3125 4.875C87.8333 4.75 87.2917 4.6875 86.6875 4.6875C86.1042 4.6875 85.5833 4.73958 85.125 4.84375C84.6667 4.92708 84.2604 5.04167 83.9062 5.1875C83.5729 5.33333 83.2917 5.47917 83.0625 5.625C82.8333 5.77083 82.6562 5.90625 82.5312 6.03125C82.7812 6.96875 82.9688 7.88542 83.0938 8.78125C83.2188 9.67708 83.2812 10.5938 83.2812 11.5312C83.2812 13.5104 82.9583 15.4688 82.3125 17.4062C82.8333 17.2396 83.3333 17.1354 83.8125 17.0938C84.2917 17.0521 84.7396 17.0312 85.1562 17.0312C86.2812 17.0312 87.125 17.1042 87.6875 17.25C88.25 17.375 88.6458 17.5208 88.875 17.6875C89.1458 17.875 89.2708 18.0833 89.25 18.3125C89.25 18.5 89.1771 18.6562 89.0312 18.7812C88.9062 18.8854 88.7604 18.9375 88.5938 18.9375C88.5521 18.9375 88.4896 18.9167 88.4062 18.875C88.3438 18.8125 88.2083 18.75 88 18.6875C87.7917 18.625 87.5 18.5729 87.125 18.5312C86.75 18.4688 86.2396 18.4375 85.5938 18.4375C85.0729 18.4375 84.5104 18.4896 83.9062 18.5938C83.3021 18.6979 82.6667 18.875 82 19.125C82.2917 20.125 82.5104 21.125 82.6562 22.125C82.8229 23.125 82.9062 24.1562 82.9062 25.2188C82.9062 26.0938 82.8438 26.9896 82.7188 27.9062C82.6146 28.8021 82.4583 29.6979 82.25 30.5938C82.5833 30.5521 82.8958 30.5208 83.1875 30.5C83.4792 30.4792 83.7917 30.4688 84.125 30.4688C84.6042 30.4688 85.1562 30.5 85.7812 30.5625C86.4062 30.6042 87 30.6771 87.5625 30.7812C88.125 30.8854 88.5938 31.0208 88.9688 31.1875C89.3646 31.3333 89.5625 31.5208 89.5625 31.75C89.5625 31.9792 89.4688 32.1458 89.2812 32.25C89.0938 32.3333 88.9062 32.375 88.7188 32.375C88.2396 32.25 87.6875 32.1458 87.0625 32.0625C86.4583 31.9792 85.8229 31.9375 85.1562 31.9375C84.6771 31.9375 84.1667 31.9688 83.625 32.0312C83.1042 32.0729 82.6042 32.125 82.125 32.1875C82.3333 33.0625 82.4688 33.9167 82.5312 34.75C82.6146 35.5833 82.6562 36.3958 82.6562 37.1875C82.6562 39.7292 82.2083 42.1979 81.3125 44.5938C81.3958 44.7396 81.5312 44.9375 81.7188 45.1875C81.9271 45.4167 82.2083 45.6458 82.5625 45.875C82.9375 46.0833 83.3958 46.2708 83.9375 46.4375C84.4792 46.5833 85.1354 46.6562 85.9062 46.6562C86.6771 46.6562 87.3438 46.5833 87.9062 46.4375C88.4688 46.2917 88.9375 46.125 89.3125 45.9375C89.7083 45.7292 90.0104 45.5208 90.2188 45.3125C90.4479 45.0833 90.6146 44.8958 90.7188 44.75C90.3646 43.6458 90.0938 42.5625 89.9062 41.5C89.7188 40.4375 89.625 39.3646 89.625 38.2812C89.625 37.1146 89.7188 35.9688 89.9062 34.8438C90.1146 33.7188 90.4271 32.5833 90.8438 31.4375C90.4896 30.375 90.2292 29.3125 90.0625 28.25C89.8958 27.1875 89.8125 26.0938 89.8125 24.9688C89.8125 23.9062 89.8854 22.8229 90.0312 21.7188C90.1979 20.5938 90.4479 19.4583 90.7812 18.3125C90.2604 16.6042 90 14.8542 90 13.0625C90 10.7917 90.3854 8.53125 91.1562 6.28125ZM92.9375 5.9375L92.75 6.34375C92.375 7.48958 92.0833 8.625 91.875 9.75C91.6875 10.8542 91.5938 11.9375 91.5938 13V13.0625C92.4062 13.0625 93.2188 13.1146 94.0312 13.2188C94.8646 13.3229 95.7188 13.4375 96.5938 13.5625C97.6354 13.2083 98.5208 12.9479 99.25 12.7812C100 12.6146 100.76 12.5312 101.531 12.5312C102.177 12.5312 102.865 12.5938 103.594 12.7188C104.323 12.8438 105.167 13.0208 106.125 13.25C106.229 13.125 106.354 12.9479 106.5 12.7188C106.667 12.4896 106.812 12.2083 106.938 11.875C107.083 11.5417 107.208 11.1667 107.312 10.75C107.417 10.3125 107.469 9.82292 107.469 9.28125C107.469 8.69792 107.406 8.16667 107.281 7.6875C107.156 7.20833 107 6.79167 106.812 6.4375C106.646 6.08333 106.469 5.79167 106.281 5.5625C106.094 5.3125 105.938 5.125 105.812 5C104.708 5.375 103.781 5.65625 103.031 5.84375C102.302 6.01042 101.583 6.09375 100.875 6.09375C100.333 6.09375 99.75 6.04167 99.125 5.9375C98.5 5.83333 97.7812 5.6875 96.9688 5.5C97.1979 6.08333 97.3646 6.65625 97.4688 7.21875C97.5729 7.78125 97.625 8.30208 97.625 8.78125C97.625 9.71875 97.5625 10.4271 97.4375 10.9062C97.3333 11.3646 97.2083 11.6875 97.0625 11.875C96.9167 12.0625 96.7812 12.1562 96.6562 12.1562C96.5521 12.1562 96.4896 12.1562 96.4688 12.1562C96.3021 12.1562 96.1562 12.0938 96.0312 11.9688C95.9062 11.8438 95.8438 11.6979 95.8438 11.5312C95.8438 11.5104 95.8542 11.4688 95.875 11.4062C95.9167 11.3438 95.9583 11.2396 96 11.0938C96.0417 10.9479 96.0729 10.7396 96.0938 10.4688C96.1354 10.1979 96.1562 9.82292 96.1562 9.34375C96.1562 8.80208 96.0938 8.1875 95.9688 7.5C95.8438 6.8125 95.5833 6.10417 95.1875 5.375C94.7917 5.375 94.3854 5.42708 93.9688 5.53125C93.5521 5.61458 93.1458 5.70833 92.75 5.8125L92.9375 5.9375ZM91.2188 38.2188C91.2188 39.2812 91.3021 40.3333 91.4688 41.375C91.6354 42.4167 91.9167 43.4688 92.3125 44.5312V44.6875C92.8333 44.7917 93.3438 44.8958 93.8438 45C94.3438 45.0833 94.8333 45.2083 95.3125 45.375C96.1042 45.1875 96.8021 45.0521 97.4062 44.9688C98.0312 44.8646 98.6354 44.8125 99.2188 44.8125C99.6354 44.8125 100.042 44.8438 100.438 44.9062C100.854 44.9479 101.281 45.0208 101.719 45.125C102.156 45.2083 102.625 45.3333 103.125 45.5C103.625 45.6458 104.177 45.8229 104.781 46.0312C104.906 45.9062 105.062 45.7188 105.25 45.4688C105.458 45.2188 105.656 44.9062 105.844 44.5312C106.031 44.1562 106.188 43.7292 106.312 43.25C106.458 42.75 106.531 42.1979 106.531 41.5938C106.531 40.5729 106.375 39.75 106.062 39.125C105.75 38.4792 105.479 38.0208 105.25 37.75C104.375 37.9792 103.615 38.1458 102.969 38.25C102.344 38.3542 101.76 38.4062 101.219 38.4062C100.469 38.4062 99.7292 38.3229 99 38.1562C98.2917 37.9896 97.4271 37.7292 96.4062 37.375C96.5312 37.8333 96.6146 38.2604 96.6562 38.6562C96.6979 39.0312 96.7188 39.4167 96.7188 39.8125C96.7188 40.9375 96.6354 41.7812 96.4688 42.3438C96.3229 42.9062 96.1562 43.3021 95.9688 43.5312C95.8021 43.7604 95.6458 43.8854 95.5 43.9062C95.3542 43.9062 95.2917 43.9062 95.3125 43.9062C95.125 43.9062 94.9688 43.8438 94.8438 43.7188C94.7396 43.5938 94.6875 43.4583 94.6875 43.3125C94.6875 43.2917 94.7188 43.2396 94.7812 43.1562C94.8438 43.0729 94.9062 42.9271 94.9688 42.7188C95.0312 42.4896 95.0938 42.1771 95.1562 41.7812C95.2188 41.3854 95.25 40.875 95.25 40.25C95.25 39.8125 95.2083 39.3229 95.125 38.7812C95.0417 38.2188 94.875 37.6458 94.625 37.0625C94.0208 37.0625 93.4271 37.1042 92.8438 37.1875C92.2812 37.25 91.7396 37.3125 91.2188 37.375V38.2188ZM94.0312 29.125C94.9479 29.125 95.8542 29.2083 96.75 29.375C97.6667 29.5417 98.7083 29.8021 99.875 30.1562C100.021 30.0312 100.188 29.8438 100.375 29.5938C100.562 29.3438 100.74 29.0417 100.906 28.6875C101.073 28.3333 101.219 27.9271 101.344 27.4688C101.469 27.0104 101.531 26.4896 101.531 25.9062C101.531 25.3438 101.479 24.8438 101.375 24.4062C101.271 23.9688 101.146 23.5938 101 23.2812C100.854 22.9479 100.698 22.6771 100.531 22.4688C100.365 22.2396 100.229 22.0625 100.125 21.9375C99.1875 22.2083 98.3438 22.3958 97.5938 22.5C96.8646 22.6042 96.1458 22.6562 95.4375 22.6562C94.7917 22.6562 94.1562 22.625 93.5312 22.5625C92.9062 22.4792 92.2396 22.3438 91.5312 22.1562C91.4688 22.6354 91.4167 23.125 91.375 23.625C91.3542 24.1042 91.3438 24.5729 91.3438 25.0312C91.3438 25.7604 91.375 26.4792 91.4375 27.1875C91.5208 27.8958 91.6458 28.6042 91.8125 29.3125C92.5625 29.1875 93.3021 29.125 94.0312 29.125ZM141.594 23.0938L141.219 23.2812C139.865 23.8646 138.625 24.5208 137.5 25.25C136.396 25.9583 135.396 26.7812 134.5 27.7188C134.854 28.6771 135.312 29.5417 135.875 30.3125C136.438 31.0625 137.177 31.8646 138.094 32.7188L138.281 33.0312C138.635 34.8229 139.219 36.4479 140.031 37.9062C140.865 39.3646 141.99 40.6979 143.406 41.9062L143.656 42.0625V42.375C143.656 42.4167 143.635 42.6146 143.594 42.9688C143.573 43.3229 143.448 43.7604 143.219 44.2812C143.01 44.8021 142.656 45.3646 142.156 45.9688C141.656 46.5729 140.938 47.1458 140 47.6875C139.271 48.1042 138.583 48.3854 137.938 48.5312C137.312 48.6979 136.76 48.7812 136.281 48.7812C135.844 48.7812 135.458 48.7396 135.125 48.6562C134.792 48.5729 134.51 48.4792 134.281 48.375C134.052 48.2708 133.875 48.1771 133.75 48.0938C133.625 48.0104 133.552 47.9583 133.531 47.9375L133.344 47.8125L133.281 47.5C133.177 46.6875 133.01 45.9271 132.781 45.2188C132.573 44.5104 132.302 43.8229 131.969 43.1562C131.635 42.4896 131.24 41.8333 130.781 41.1875C130.344 40.5417 129.854 39.8854 129.312 39.2188C129.104 39.0104 128.958 38.8854 128.875 38.8438L128.688 38.6562V38.4062C128.521 37.4271 128.323 36.5625 128.094 35.8125C127.885 35.0417 127.594 34.3229 127.219 33.6562C126.344 34.3021 125.5 35.0208 124.688 35.8125C123.896 36.6042 123.177 37.4271 122.531 38.2812C122.49 38.4479 122.479 38.6042 122.5 38.75C122.521 38.8958 122.531 39.0521 122.531 39.2188C122.531 40.3229 122.615 41.4062 122.781 42.4688C122.948 43.5104 123.229 44.5625 123.625 45.625L123.75 45.875L123.625 46.2188C123.604 46.2604 123.49 46.4479 123.281 46.7812C123.073 47.0938 122.729 47.4375 122.25 47.8125C121.771 48.1875 121.115 48.5208 120.281 48.8125C119.469 49.125 118.448 49.2812 117.219 49.2812C115.99 49.2812 114.969 49.1146 114.156 48.7812C113.365 48.4688 112.729 48.1146 112.25 47.7188C111.792 47.3021 111.469 46.9271 111.281 46.5938C111.094 46.2604 111 46.0729 111 46.0312L110.875 45.6875L111 45.4375C111.479 44.2708 111.833 43.0938 112.062 41.9062C112.292 40.6979 112.406 39.4479 112.406 38.1562C112.406 37.2812 112.354 36.4062 112.25 35.5312C112.167 34.6354 112.01 33.7188 111.781 32.7812V32.375C112.031 31.3542 112.229 30.3438 112.375 29.3438C112.542 28.3229 112.625 27.3333 112.625 26.375C112.625 25.25 112.531 24.1562 112.344 23.0938C112.156 22.0312 111.906 20.9688 111.594 19.9062L111.531 19.6562L111.656 19.4062C112.552 17.1146 113 14.8229 113 12.5312C113 11.5938 112.927 10.6771 112.781 9.78125C112.656 8.88542 112.448 7.96875 112.156 7.03125L112.031 6.65625L112.281 6.34375C112.302 6.32292 112.385 6.23958 112.531 6.09375C112.677 5.92708 112.896 5.73958 113.188 5.53125C113.479 5.30208 113.854 5.08333 114.312 4.875C114.771 4.64583 115.312 4.46875 115.938 4.34375C116.333 3.71875 116.781 3.22917 117.281 2.875C117.781 2.5 118.25 2.21875 118.688 2.03125C119.146 1.84375 119.531 1.71875 119.844 1.65625C120.177 1.59375 120.365 1.55208 120.406 1.53125H120.75L121 1.71875C121.604 2.26042 122.271 2.78125 123 3.28125C123.729 3.78125 124.5 4.21875 125.312 4.59375C126.125 4.96875 126.979 5.27083 127.875 5.5C128.771 5.70833 129.698 5.8125 130.656 5.8125L131.188 6.03125C132.021 6.76042 132.812 7.38542 133.562 7.90625C134.333 8.40625 135.125 8.82292 135.938 9.15625C136.75 9.48958 137.604 9.75 138.5 9.9375C139.396 10.125 140.385 10.25 141.469 10.3125L141.875 10.375L142.125 10.6875C142.125 10.7292 142.156 10.8229 142.219 10.9688C142.302 11.1146 142.385 11.3229 142.469 11.5938C142.552 11.8438 142.625 12.1562 142.688 12.5312C142.771 12.8854 142.812 13.2917 142.812 13.75C142.812 14.1667 142.771 14.6146 142.688 15.0938C142.625 15.5729 142.5 16.0833 142.312 16.625C142.021 17.4792 141.656 18.1875 141.219 18.75C141.448 19.2917 141.594 19.8021 141.656 20.2812C141.74 20.7396 141.781 21.1458 141.781 21.5C141.781 21.8542 141.76 22.1354 141.719 22.3438C141.677 22.5521 141.656 22.6771 141.656 22.7188L141.594 23.0938ZM116.375 13.125L116.188 12.9375C116.146 12.9167 116.052 12.8229 115.906 12.6562C115.76 12.4896 115.604 12.25 115.438 11.9375C115.271 11.6042 115.115 11.1979 114.969 10.7188C114.844 10.2396 114.781 9.67708 114.781 9.03125C114.781 8.48958 114.802 7.98958 114.844 7.53125C114.906 7.07292 114.99 6.65625 115.094 6.28125C114.781 6.40625 114.521 6.54167 114.312 6.6875C114.125 6.83333 113.969 6.96875 113.844 7.09375C114.344 8.96875 114.594 10.7812 114.594 12.5312C114.594 14.5104 114.271 16.4792 113.625 18.4375C114.104 18.2708 114.573 18.1667 115.031 18.125C115.51 18.0833 115.958 18.0625 116.375 18.0625C117.542 18.0625 118.417 18.1458 119 18.3125C119.583 18.4583 119.99 18.6146 120.219 18.7812C120.448 18.9479 120.562 19.1042 120.562 19.25C120.562 19.3958 120.562 19.4479 120.562 19.4062C120.562 19.5729 120.49 19.7083 120.344 19.8125C120.219 19.9167 120.073 19.9688 119.906 19.9688C119.865 19.9688 119.812 19.9479 119.75 19.9062C119.688 19.8646 119.552 19.8125 119.344 19.75C119.156 19.6875 118.865 19.6354 118.469 19.5938C118.094 19.5521 117.573 19.5312 116.906 19.5312C116.385 19.5312 115.823 19.5729 115.219 19.6562C114.615 19.7396 113.979 19.9271 113.312 20.2188C113.604 21.2188 113.823 22.2188 113.969 23.2188C114.135 24.2188 114.219 25.25 114.219 26.3125C114.219 27.1875 114.156 28.0729 114.031 28.9688C113.927 29.8646 113.771 30.7708 113.562 31.6875C113.896 31.6458 114.229 31.6146 114.562 31.5938C114.917 31.5729 115.271 31.5625 115.625 31.5625C116.104 31.5625 116.646 31.5833 117.25 31.625C117.854 31.6667 118.427 31.7396 118.969 31.8438C119.51 31.9271 119.958 32.0521 120.312 32.2188C120.688 32.3646 120.875 32.5521 120.875 32.7812C120.875 32.9688 120.802 33.1354 120.656 33.2812C120.531 33.4062 120.385 33.4688 120.219 33.4688C119.74 33.4688 119.177 33.3854 118.531 33.2188C117.885 33.0521 117.188 32.9688 116.438 32.9688C115.958 32.9688 115.458 33 114.938 33.0625C114.417 33.1042 113.917 33.1562 113.438 33.2188C113.646 34.0938 113.781 34.9479 113.844 35.7812C113.927 36.5938 113.969 37.4062 113.969 38.2188C113.969 39.5312 113.854 40.8021 113.625 42.0312C113.396 43.2396 113.062 44.4583 112.625 45.6875C112.708 45.8333 112.844 46.0312 113.031 46.2812C113.24 46.5104 113.521 46.7396 113.875 46.9688C114.25 47.1771 114.708 47.3646 115.25 47.5312C115.792 47.6771 116.448 47.75 117.219 47.75C117.99 47.75 118.656 47.6771 119.219 47.5312C119.781 47.3646 120.25 47.1771 120.625 46.9688C121.021 46.7604 121.323 46.5417 121.531 46.3125C121.76 46.0833 121.927 45.8958 122.031 45.75C121.302 43.625 120.938 41.5 120.938 39.375C120.938 38.2083 121.031 37.0521 121.219 35.9062C121.427 34.7604 121.74 33.625 122.156 32.5C121.802 31.4375 121.542 30.375 121.375 29.3125C121.208 28.25 121.125 27.1354 121.125 25.9688C121.125 24.9062 121.198 23.8229 121.344 22.7188C121.51 21.6146 121.76 20.4792 122.094 19.3125C121.573 17.6875 121.312 16.0104 121.312 14.2812V13.875C120.604 13.6458 119.885 13.4792 119.156 13.375C118.427 13.25 117.615 13.1667 116.719 13.125H116.375ZM140.906 11.8438C139.906 11.7604 139 11.6354 138.188 11.4688C137.375 11.3021 136.594 11.0729 135.844 10.7812C135.115 10.4688 134.385 10.1042 133.656 9.6875C132.948 9.27083 132.208 8.77083 131.438 8.1875C131.396 9.08333 131.24 9.88542 130.969 10.5938C130.719 11.3021 130.448 11.9062 130.156 12.4062C129.885 12.9062 129.625 13.2917 129.375 13.5625C129.146 13.8333 129.021 13.9896 129 14.0312C128.938 14.0938 128.865 14.1354 128.781 14.1562C128.698 14.1562 128.625 14.1562 128.562 14.1562C128.354 14.1562 128.188 14.1042 128.062 14C127.958 13.875 127.906 13.7292 127.906 13.5625C127.906 13.3542 127.948 13.2083 128.031 13.125C128.052 13.1042 128.156 12.9688 128.344 12.7188C128.531 12.4688 128.729 12.1146 128.938 11.6562C129.167 11.1771 129.375 10.6146 129.562 9.96875C129.75 9.32292 129.844 8.60417 129.844 7.8125C129.844 7.64583 129.844 7.52083 129.844 7.4375C129.844 7.33333 129.729 7.28125 129.5 7.28125C128.521 7.09375 127.615 6.88542 126.781 6.65625C125.969 6.40625 125.188 6.11458 124.438 5.78125C123.708 5.44792 123 5.0625 122.312 4.625C121.625 4.1875 120.927 3.66667 120.219 3.0625C120.073 3.10417 119.781 3.21875 119.344 3.40625C118.927 3.57292 118.49 3.88542 118.031 4.34375C117.594 4.80208 117.198 5.41667 116.844 6.1875C116.49 6.9375 116.312 7.90625 116.312 9.09375C116.312 9.76042 116.396 10.3021 116.562 10.7188C116.75 11.1354 116.927 11.4479 117.094 11.6562C118.156 11.6979 119.135 11.8125 120.031 12C120.948 12.1667 121.823 12.4167 122.656 12.75C123.51 13.0833 124.354 13.4896 125.188 13.9688C126.021 14.4271 126.906 14.9583 127.844 15.5625C128.844 15.625 129.76 15.75 130.594 15.9375C131.448 16.125 132.271 16.3854 133.062 16.7188C133.854 17.0521 134.635 17.4583 135.406 17.9375C136.198 18.3958 137.031 18.9479 137.906 19.5938C138.115 19.4896 138.406 19.3021 138.781 19.0312C139.156 18.7396 139.531 18.3542 139.906 17.875C140.281 17.375 140.604 16.7812 140.875 16.0938C141.146 15.4062 141.281 14.6042 141.281 13.6875C141.281 13.2708 141.24 12.9062 141.156 12.5938C141.094 12.2812 141.01 12.0312 140.906 11.8438ZM142.25 42.75C140.875 41.5625 139.719 40.1979 138.781 38.6562C137.844 37.0938 137.229 35.4062 136.938 33.5938C136.271 32.9688 135.698 32.3646 135.219 31.7812C134.74 31.1979 134.323 30.5833 133.969 29.9375C133.615 29.2917 133.302 28.5938 133.031 27.8438C132.781 27.0938 132.562 26.2396 132.375 25.2812C132.25 25.2396 132.094 25.2188 131.906 25.2188C131.74 25.2188 131.542 25.2188 131.312 25.2188C130.438 25.2188 129.646 25.3854 128.938 25.7188C128.229 26.0312 127.625 26.4062 127.125 26.8438C126.625 27.2604 126.229 27.6875 125.938 28.125C125.646 28.5417 125.469 28.8542 125.406 29.0625C126.052 29.6875 126.604 30.2812 127.062 30.8438C127.542 31.3854 127.948 31.9583 128.281 32.5625C128.635 33.1458 128.938 33.7708 129.188 34.4375C129.438 35.1042 129.656 35.875 129.844 36.75C130.552 36 131.25 35.4479 131.938 35.0938C132.625 34.7188 133.229 34.4583 133.75 34.3125C134.292 34.1458 134.708 34.0625 135 34.0625C135.292 34.0625 135.385 34.0625 135.281 34.0625C135.406 34.1042 135.51 34.1771 135.594 34.2812C135.677 34.3646 135.74 34.4583 135.781 34.5625C135.781 34.8333 135.719 35.0104 135.594 35.0938C135.49 35.1771 135.333 35.2292 135.125 35.25C134.917 35.2708 134.656 35.3021 134.344 35.3438C134.031 35.3854 133.677 35.5 133.281 35.6875C132.885 35.875 132.438 36.1771 131.938 36.5938C131.458 36.9896 130.948 37.5521 130.406 38.2812C131.635 39.5312 132.594 40.9062 133.281 42.4062C133.969 43.9062 134.438 45.4271 134.688 46.9688C134.812 47.0729 135 47.1667 135.25 47.25C135.521 47.3333 135.865 47.375 136.281 47.375C137.385 47.375 138.312 47.1562 139.062 46.7188C139.833 46.2604 140.448 45.75 140.906 45.1875C141.365 44.625 141.698 44.1042 141.906 43.625C142.115 43.125 142.229 42.8333 142.25 42.75ZM137.625 21.3125L137.312 21.0625C136.583 20.5208 135.885 20.0417 135.219 19.625C134.573 19.1875 133.927 18.8125 133.281 18.5C131.365 20.4792 129.146 22.0521 126.625 23.2188C126.917 23.4271 127.188 23.625 127.438 23.8125C127.688 24 127.927 24.2083 128.156 24.4375C128.74 24.1875 129.292 24.0208 129.812 23.9375C130.354 23.8542 130.833 23.8125 131.25 23.8125C131.854 23.8125 132.333 23.8542 132.688 23.9375C133.042 24.0208 133.24 24.0625 133.281 24.0625L133.656 24.25L133.719 24.5625C133.76 24.8542 133.812 25.1354 133.875 25.4062C133.938 25.6562 134 25.8958 134.062 26.125C134.938 25.3125 135.885 24.5833 136.906 23.9375C137.948 23.2917 139.062 22.6979 140.25 22.1562V21.625C140.25 21.4375 140.229 21.2083 140.188 20.9375C140.167 20.6667 140.104 20.3646 140 20.0312C139.521 20.4479 139.083 20.75 138.688 20.9375C138.292 21.1042 138.073 21.1875 138.031 21.1875L137.625 21.3125ZM127.125 16.9062C126.333 16.4479 125.594 16.0208 124.906 15.625C124.219 15.2083 123.552 14.8438 122.906 14.5312C122.906 15.3021 122.969 16.0729 123.094 16.8438C123.219 17.5938 123.396 18.3542 123.625 19.125V19.5938C123.104 21.3438 122.781 23.0521 122.656 24.7188C122.99 24.3854 123.292 24.0521 123.562 23.7188C123.854 23.3854 124.083 23.0729 124.25 22.7812L124.719 22.4062C126.094 21.8854 127.375 21.2604 128.562 20.5312C129.771 19.7812 130.875 18.8854 131.875 17.8438C130.583 17.4271 129.135 17.1562 127.531 17.0312L127.125 16.9062ZM123.812 32.5L123.688 32.7812C123.312 33.7188 123.031 34.6771 122.844 35.6562C123.385 35.0521 123.969 34.4792 124.594 33.9375C125.219 33.375 125.833 32.8542 126.438 32.375C126.104 31.9583 125.74 31.5417 125.344 31.125C124.969 30.6875 124.542 30.2292 124.062 29.75L123.812 29.5625L123.875 29.1875C123.875 29.1667 123.906 29.0312 123.969 28.7812C124.031 28.5104 124.167 28.1875 124.375 27.8125C124.583 27.4167 124.875 27 125.25 26.5625C125.646 26.1042 126.167 25.6562 126.812 25.2188C126.562 25.0312 126.292 24.8438 126 24.6562C125.708 24.4688 125.406 24.2917 125.094 24.125C124.906 24.5417 124.573 24.9792 124.094 25.4375C123.615 25.8958 123.135 26.3333 122.656 26.75C122.698 27.7292 122.792 28.6667 122.938 29.5625C123.104 30.4583 123.354 31.3542 123.688 32.25L123.812 32.5ZM176.625 31.6875C176.75 32.375 176.812 33.0104 176.812 33.5938C176.812 34.2396 176.75 34.8229 176.625 35.3438C176.5 35.8438 176.354 36.2812 176.188 36.6562C176.042 37.0104 175.896 37.3021 175.75 37.5312C175.625 37.7396 175.552 37.8542 175.531 37.875L175.281 38.2188L174.844 38.1562C174.552 38.1146 174.26 38.0938 173.969 38.0938C173.677 38.0938 173.385 38.0938 173.094 38.0938C173.385 39.1146 173.75 40.1042 174.188 41.0625C174.625 42.0208 175.115 42.9479 175.656 43.8438L176 44.3438L175.594 44.8125C175.573 44.8333 175.458 44.9479 175.25 45.1562C175.062 45.3438 174.771 45.5729 174.375 45.8438C173.979 46.0938 173.469 46.3646 172.844 46.6562C172.24 46.9479 171.521 47.1875 170.688 47.375C170.292 47.4792 169.896 47.5625 169.5 47.625C169.125 47.6667 168.75 47.6875 168.375 47.6875C167.833 47.6875 167.333 47.6458 166.875 47.5625C166.438 47.4792 166.062 47.3854 165.75 47.2812C165.438 47.1562 165.188 47.0521 165 46.9688C164.833 46.8854 164.74 46.8438 164.719 46.8438L164.281 46.5938L164.344 46.0938C164.344 45.8229 164.354 45.5625 164.375 45.3125C164.396 45.0625 164.406 44.8021 164.406 44.5312C164.406 43.0938 164.281 41.6667 164.031 40.25C163.948 40.3333 163.875 40.375 163.812 40.375L163.375 40.5C162.062 40.5 160.719 40.5833 159.344 40.75C157.969 40.9167 156.604 41.2188 155.25 41.6562V42.625C155.25 43.5208 155.312 44.4167 155.438 45.3125L155.5 45.625L155.312 45.875C155.292 45.8958 155.188 46.0104 155 46.2188C154.812 46.4271 154.521 46.6562 154.125 46.9062C153.729 47.1562 153.229 47.3854 152.625 47.5938C152.021 47.7812 151.292 47.875 150.438 47.875C148.771 47.875 147.448 47.6354 146.469 47.1562C145.51 46.6771 144.771 46.1354 144.25 45.5312C143.646 44.8438 143.24 44.0625 143.031 43.1875L142.969 42.9375L143.156 42.6875C144.219 41.0625 145 39.3333 145.5 37.5C146.021 35.6458 146.281 33.6458 146.281 31.5V30.4062L146.406 30.0312C147.219 28.4062 147.812 26.7917 148.188 25.1875C148.583 23.5625 148.781 21.9271 148.781 20.2812C148.781 19.8646 148.771 19.4479 148.75 19.0312C148.729 18.6146 148.698 18.1979 148.656 17.7812L148.594 17.4688L148.781 17.2188C150.781 14.1562 151.781 10.8438 151.781 7.28125C151.781 6.96875 151.771 6.64583 151.75 6.3125C151.729 5.95833 151.698 5.60417 151.656 5.25V4.875L151.938 4.59375C151.958 4.57292 152.062 4.5 152.25 4.375C152.458 4.22917 152.74 4.08333 153.094 3.9375C153.448 3.77083 153.875 3.625 154.375 3.5C154.896 3.375 155.49 3.3125 156.156 3.3125C157.448 3.3125 158.542 3.51042 159.438 3.90625C160.354 4.30208 161.094 4.73958 161.656 5.21875C162.219 5.69792 162.625 6.13542 162.875 6.53125C163.146 6.92708 163.292 7.13542 163.312 7.15625L163.5 7.5625L163.312 7.9375C163.229 8.02083 163.188 8.08333 163.188 8.125H163.625C164.542 8.125 165.26 8.1875 165.781 8.3125C166.323 8.4375 166.615 8.5 166.656 8.5L167.031 8.78125L166.969 9.21875C166.927 9.46875 166.906 9.71875 166.906 9.96875C166.906 10.1979 166.906 10.4375 166.906 10.6875C166.906 14.3958 167.781 17.7917 169.531 20.875L169.656 21.25V22.0938C169.656 23.1771 169.698 24.2188 169.781 25.2188C169.865 26.1979 170.031 27.1354 170.281 28.0312C170.698 27.8646 171.104 27.6875 171.5 27.5C171.896 27.3125 172.281 27.1042 172.656 26.875L172.969 26.6875L173.375 26.8125C173.396 26.8333 173.531 26.9271 173.781 27.0938C174.052 27.2604 174.354 27.5312 174.688 27.9062C175.042 28.2812 175.396 28.7812 175.75 29.4062C176.125 30.0104 176.417 30.7708 176.625 31.6875ZM161.719 7.5625C161.594 7.375 161.385 7.13542 161.094 6.84375C160.802 6.55208 160.427 6.27083 159.969 6C159.531 5.70833 158.99 5.45833 158.344 5.25C157.719 5.04167 156.99 4.9375 156.156 4.9375C155.427 4.9375 154.823 5.01042 154.344 5.15625C153.865 5.30208 153.51 5.4375 153.281 5.5625C153.323 5.85417 153.344 6.14583 153.344 6.4375C153.344 6.70833 153.344 6.98958 153.344 7.28125C153.344 8.98958 153.135 10.6146 152.719 12.1562C152.302 13.6979 151.698 15.2188 150.906 16.7188C151.073 16.7188 151.229 16.7083 151.375 16.6875C151.521 16.6458 151.677 16.625 151.844 16.625C152.656 16.625 153.385 16.7083 154.031 16.875C154.677 17.0417 155.229 17.2292 155.688 17.4375C156.167 17.6458 156.542 17.8438 156.812 18.0312C157.083 18.1979 157.229 18.2917 157.25 18.3125C157.458 18.4583 157.562 18.625 157.562 18.8125C157.562 19.0417 157.479 19.2083 157.312 19.3125C157.167 19.4167 157.01 19.4688 156.844 19.4688C156.698 19.4688 156.594 19.4167 156.531 19.3125C156.51 19.2917 156.385 19.2292 156.156 19.125C155.948 19 155.646 18.875 155.25 18.75C154.875 18.6042 154.417 18.4792 153.875 18.375C153.354 18.25 152.771 18.1875 152.125 18.1875C151.562 18.1875 150.958 18.25 150.312 18.375C150.312 18.6667 150.323 18.9479 150.344 19.2188C150.365 19.4688 150.375 19.7396 150.375 20.0312C150.375 23.3229 149.677 26.5208 148.281 29.625C148.865 29.6667 149.552 29.7708 150.344 29.9375C151.135 30.0833 151.896 30.2708 152.625 30.5C153.354 30.7292 153.969 30.9896 154.469 31.2812C154.99 31.5521 155.25 31.8333 155.25 32.125C155.25 32.3125 155.188 32.4583 155.062 32.5625C154.938 32.6667 154.792 32.7188 154.625 32.7188C154.542 32.7188 154.479 32.7083 154.438 32.6875C154.396 32.6458 154.344 32.625 154.281 32.625C153.51 32.2083 152.542 31.875 151.375 31.625C150.208 31.3542 149.052 31.2188 147.906 31.2188C147.906 33.5521 147.635 35.6979 147.094 37.6562C146.573 39.5938 145.75 41.4583 144.625 43.25C144.688 43.3958 144.823 43.6458 145.031 44C145.24 44.3333 145.562 44.6771 146 45.0312C146.458 45.3646 147.042 45.6667 147.75 45.9375C148.479 46.2083 149.375 46.3438 150.438 46.3438C151.438 46.3438 152.208 46.1979 152.75 45.9062C153.292 45.6146 153.656 45.375 153.844 45.1875C153.781 44.7708 153.74 44.3542 153.719 43.9375C153.719 43.5208 153.719 43.1042 153.719 42.6875C153.719 40.8125 153.948 39.0104 154.406 37.2812C154.865 35.5312 155.573 33.8125 156.531 32.125C156.406 31.2917 156.344 30.4583 156.344 29.625C156.344 27.8958 156.562 26.1771 157 24.4688C157.458 22.7604 158.135 21 159.031 19.1875C158.99 18.9375 158.969 18.6875 158.969 18.4375C158.969 18.1875 158.969 17.9271 158.969 17.6562C158.969 15.9271 159.188 14.2188 159.625 12.5312C160.083 10.8438 160.781 9.1875 161.719 7.5625ZM163.25 38.9688C164.688 38.1771 166.198 37.5729 167.781 37.1562C169.385 36.7396 171.052 36.5312 172.781 36.5312C173.073 36.5312 173.365 36.5312 173.656 36.5312C173.948 36.5312 174.26 36.5521 174.594 36.5938C174.719 36.3646 174.875 36 175.062 35.5C175.25 34.9792 175.344 34.3646 175.344 33.6562C175.344 32.8854 175.25 32.1979 175.062 31.5938C174.875 30.9688 174.646 30.4375 174.375 30C174.125 29.5625 173.865 29.2188 173.594 28.9688C173.323 28.6979 173.115 28.5104 172.969 28.4062C170.01 30.0729 166.938 30.9062 163.75 30.9062C163.5 30.9062 163.26 30.9062 163.031 30.9062C162.802 30.9062 162.573 30.8854 162.344 30.8438C162.823 31.7396 163.146 32.5938 163.312 33.4062C163.479 34.1979 163.562 34.8854 163.562 35.4688C163.562 35.9688 163.542 36.3646 163.5 36.6562C163.458 36.9271 163.396 37.1354 163.312 37.2812C163.25 37.4062 163.167 37.4896 163.062 37.5312C162.958 37.5521 162.854 37.5625 162.75 37.5625C162.583 37.5625 162.448 37.5104 162.344 37.4062C162.26 37.3021 162.219 37.1667 162.219 37V36.1562C162.219 35.9062 162.198 35.5938 162.156 35.2188C162.135 34.8229 162.062 34.4062 161.938 33.9688C161.833 33.5104 161.677 33.0312 161.469 32.5312C161.26 32.0104 160.979 31.4896 160.625 30.9688C160.396 31.1979 160.031 31.4062 159.531 31.5938C159.031 31.7812 158.542 31.9375 158.062 32.0625C158.062 32.1042 158.073 32.125 158.094 32.125C158.115 32.125 158.125 32.1458 158.125 32.1875L158.188 32.4375L158 32.7188C157.292 33.8646 156.719 35.0417 156.281 36.25C155.865 37.4583 155.562 38.7083 155.375 40C156.75 39.5833 158.104 39.3125 159.438 39.1875C160.792 39.0417 162.062 38.9688 163.25 38.9688ZM166.781 21.5625C166.74 21.7292 166.646 21.8646 166.5 21.9688C166.375 22.0521 166.25 22.0938 166.125 22.0938C166.083 22.0938 166.042 22.0833 166 22.0625C165.958 22.0625 165.906 22.0625 165.844 22.0625C165.802 22.0417 165.75 22.0312 165.688 22.0312C165.271 22.0312 164.688 22.125 163.938 22.3125C163.188 22.4792 162.427 22.8542 161.656 23.4375C161.615 23.4375 161.583 23.4479 161.562 23.4688C161.542 23.4896 161.51 23.5 161.469 23.5C162.344 25.5625 163 27.5208 163.438 29.375H163.625C165.438 29.375 167.188 29.1146 168.875 28.5938C168.583 27.5104 168.375 26.375 168.25 25.1875C168.125 24 168.062 22.75 168.062 21.4375C166.229 18.0833 165.312 14.5208 165.312 10.75C165.312 10.5833 165.323 10.4167 165.344 10.25C165.365 10.0625 165.375 9.86458 165.375 9.65625C165.312 9.61458 165.146 9.58333 164.875 9.5625C164.625 9.54167 164.323 9.53125 163.969 9.53125C163.698 9.53125 163.438 9.53125 163.188 9.53125C162.938 9.53125 162.677 9.55208 162.406 9.59375C161.74 10.9688 161.25 12.3333 160.938 13.6875C160.646 15.0417 160.5 16.4062 160.5 17.7812C160.5 18.0521 160.5 18.3125 160.5 18.5625C160.5 18.8125 160.521 19.0625 160.562 19.3125L160.625 19.5312L160.5 19.7188C160.479 19.7604 160.469 19.7812 160.469 19.7812H160.438C160.562 20.2396 160.698 20.7188 160.844 21.2188C160.99 21.7188 161.062 22.0104 161.062 22.0938C161.854 21.5729 162.604 21.2396 163.312 21.0938C164.042 20.9479 164.656 20.875 165.156 20.875C165.906 20.875 166.365 20.9271 166.531 21.0312C166.698 21.1146 166.781 21.2708 166.781 21.5V21.5625ZM165.5 39.5625C165.667 40.3542 165.781 41.1458 165.844 41.9375C165.906 42.7083 165.938 43.4896 165.938 44.2812V45.625C166.188 45.75 166.531 45.8646 166.969 45.9688C167.406 46.0521 167.917 46.0938 168.5 46.0938C169.167 46.0938 169.802 46.0208 170.406 45.875C171.01 45.7083 171.552 45.5208 172.031 45.3125C172.51 45.1042 172.917 44.8854 173.25 44.6562C173.583 44.4271 173.833 44.2396 174 44.0938C173.458 43.1354 172.979 42.1667 172.562 41.1875C172.146 40.1875 171.792 39.1771 171.5 38.1562C170.438 38.2188 169.406 38.3646 168.406 38.5938C167.406 38.8229 166.438 39.1458 165.5 39.5625ZM159.344 22.2188C158.865 23.4688 158.51 24.7083 158.281 25.9375C158.052 27.1667 157.938 28.375 157.938 29.5625V30.4062C158.833 30.0938 159.688 29.7292 160.5 29.3125L161 29.1875C161.146 29.2292 161.292 29.2604 161.438 29.2812C161.583 29.3021 161.719 29.3125 161.844 29.3125C161.615 28.4167 161.323 27.5104 160.969 26.5938C160.635 25.6562 160.24 24.6875 159.781 23.6875L159.344 22.2188ZM208.156 23.0938L207.781 23.2812C206.427 23.8646 205.188 24.5208 204.062 25.25C202.958 25.9583 201.958 26.7812 201.062 27.7188C201.417 28.6771 201.875 29.5417 202.438 30.3125C203 31.0625 203.74 31.8646 204.656 32.7188L204.844 33.0312C205.198 34.8229 205.781 36.4479 206.594 37.9062C207.427 39.3646 208.552 40.6979 209.969 41.9062L210.219 42.0625V42.375C210.219 42.4167 210.198 42.6146 210.156 42.9688C210.135 43.3229 210.01 43.7604 209.781 44.2812C209.573 44.8021 209.219 45.3646 208.719 45.9688C208.219 46.5729 207.5 47.1458 206.562 47.6875C205.833 48.1042 205.146 48.3854 204.5 48.5312C203.875 48.6979 203.323 48.7812 202.844 48.7812C202.406 48.7812 202.021 48.7396 201.688 48.6562C201.354 48.5729 201.073 48.4792 200.844 48.375C200.615 48.2708 200.438 48.1771 200.312 48.0938C200.188 48.0104 200.115 47.9583 200.094 47.9375L199.906 47.8125L199.844 47.5C199.74 46.6875 199.573 45.9271 199.344 45.2188C199.135 44.5104 198.865 43.8229 198.531 43.1562C198.198 42.4896 197.802 41.8333 197.344 41.1875C196.906 40.5417 196.417 39.8854 195.875 39.2188C195.667 39.0104 195.521 38.8854 195.438 38.8438L195.25 38.6562V38.4062C195.083 37.4271 194.885 36.5625 194.656 35.8125C194.448 35.0417 194.156 34.3229 193.781 33.6562C192.906 34.3021 192.062 35.0208 191.25 35.8125C190.458 36.6042 189.74 37.4271 189.094 38.2812C189.052 38.4479 189.042 38.6042 189.062 38.75C189.083 38.8958 189.094 39.0521 189.094 39.2188C189.094 40.3229 189.177 41.4062 189.344 42.4688C189.51 43.5104 189.792 44.5625 190.188 45.625L190.312 45.875L190.188 46.2188C190.167 46.2604 190.052 46.4479 189.844 46.7812C189.635 47.0938 189.292 47.4375 188.812 47.8125C188.333 48.1875 187.677 48.5208 186.844 48.8125C186.031 49.125 185.01 49.2812 183.781 49.2812C182.552 49.2812 181.531 49.1146 180.719 48.7812C179.927 48.4688 179.292 48.1146 178.812 47.7188C178.354 47.3021 178.031 46.9271 177.844 46.5938C177.656 46.2604 177.562 46.0729 177.562 46.0312L177.438 45.6875L177.562 45.4375C178.042 44.2708 178.396 43.0938 178.625 41.9062C178.854 40.6979 178.969 39.4479 178.969 38.1562C178.969 37.2812 178.917 36.4062 178.812 35.5312C178.729 34.6354 178.573 33.7188 178.344 32.7812V32.375C178.594 31.3542 178.792 30.3438 178.938 29.3438C179.104 28.3229 179.188 27.3333 179.188 26.375C179.188 25.25 179.094 24.1562 178.906 23.0938C178.719 22.0312 178.469 20.9688 178.156 19.9062L178.094 19.6562L178.219 19.4062C179.115 17.1146 179.562 14.8229 179.562 12.5312C179.562 11.5938 179.49 10.6771 179.344 9.78125C179.219 8.88542 179.01 7.96875 178.719 7.03125L178.594 6.65625L178.844 6.34375C178.865 6.32292 178.948 6.23958 179.094 6.09375C179.24 5.92708 179.458 5.73958 179.75 5.53125C180.042 5.30208 180.417 5.08333 180.875 4.875C181.333 4.64583 181.875 4.46875 182.5 4.34375C182.896 3.71875 183.344 3.22917 183.844 2.875C184.344 2.5 184.812 2.21875 185.25 2.03125C185.708 1.84375 186.094 1.71875 186.406 1.65625C186.74 1.59375 186.927 1.55208 186.969 1.53125H187.312L187.562 1.71875C188.167 2.26042 188.833 2.78125 189.562 3.28125C190.292 3.78125 191.062 4.21875 191.875 4.59375C192.688 4.96875 193.542 5.27083 194.438 5.5C195.333 5.70833 196.26 5.8125 197.219 5.8125L197.75 6.03125C198.583 6.76042 199.375 7.38542 200.125 7.90625C200.896 8.40625 201.688 8.82292 202.5 9.15625C203.312 9.48958 204.167 9.75 205.062 9.9375C205.958 10.125 206.948 10.25 208.031 10.3125L208.438 10.375L208.688 10.6875C208.688 10.7292 208.719 10.8229 208.781 10.9688C208.865 11.1146 208.948 11.3229 209.031 11.5938C209.115 11.8438 209.188 12.1562 209.25 12.5312C209.333 12.8854 209.375 13.2917 209.375 13.75C209.375 14.1667 209.333 14.6146 209.25 15.0938C209.188 15.5729 209.062 16.0833 208.875 16.625C208.583 17.4792 208.219 18.1875 207.781 18.75C208.01 19.2917 208.156 19.8021 208.219 20.2812C208.302 20.7396 208.344 21.1458 208.344 21.5C208.344 21.8542 208.323 22.1354 208.281 22.3438C208.24 22.5521 208.219 22.6771 208.219 22.7188L208.156 23.0938ZM182.938 13.125L182.75 12.9375C182.708 12.9167 182.615 12.8229 182.469 12.6562C182.323 12.4896 182.167 12.25 182 11.9375C181.833 11.6042 181.677 11.1979 181.531 10.7188C181.406 10.2396 181.344 9.67708 181.344 9.03125C181.344 8.48958 181.365 7.98958 181.406 7.53125C181.469 7.07292 181.552 6.65625 181.656 6.28125C181.344 6.40625 181.083 6.54167 180.875 6.6875C180.688 6.83333 180.531 6.96875 180.406 7.09375C180.906 8.96875 181.156 10.7812 181.156 12.5312C181.156 14.5104 180.833 16.4792 180.188 18.4375C180.667 18.2708 181.135 18.1667 181.594 18.125C182.073 18.0833 182.521 18.0625 182.938 18.0625C184.104 18.0625 184.979 18.1458 185.562 18.3125C186.146 18.4583 186.552 18.6146 186.781 18.7812C187.01 18.9479 187.125 19.1042 187.125 19.25C187.125 19.3958 187.125 19.4479 187.125 19.4062C187.125 19.5729 187.052 19.7083 186.906 19.8125C186.781 19.9167 186.635 19.9688 186.469 19.9688C186.427 19.9688 186.375 19.9479 186.312 19.9062C186.25 19.8646 186.115 19.8125 185.906 19.75C185.719 19.6875 185.427 19.6354 185.031 19.5938C184.656 19.5521 184.135 19.5312 183.469 19.5312C182.948 19.5312 182.385 19.5729 181.781 19.6562C181.177 19.7396 180.542 19.9271 179.875 20.2188C180.167 21.2188 180.385 22.2188 180.531 23.2188C180.698 24.2188 180.781 25.25 180.781 26.3125C180.781 27.1875 180.719 28.0729 180.594 28.9688C180.49 29.8646 180.333 30.7708 180.125 31.6875C180.458 31.6458 180.792 31.6146 181.125 31.5938C181.479 31.5729 181.833 31.5625 182.188 31.5625C182.667 31.5625 183.208 31.5833 183.812 31.625C184.417 31.6667 184.99 31.7396 185.531 31.8438C186.073 31.9271 186.521 32.0521 186.875 32.2188C187.25 32.3646 187.438 32.5521 187.438 32.7812C187.438 32.9688 187.365 33.1354 187.219 33.2812C187.094 33.4062 186.948 33.4688 186.781 33.4688C186.302 33.4688 185.74 33.3854 185.094 33.2188C184.448 33.0521 183.75 32.9688 183 32.9688C182.521 32.9688 182.021 33 181.5 33.0625C180.979 33.1042 180.479 33.1562 180 33.2188C180.208 34.0938 180.344 34.9479 180.406 35.7812C180.49 36.5938 180.531 37.4062 180.531 38.2188C180.531 39.5312 180.417 40.8021 180.188 42.0312C179.958 43.2396 179.625 44.4583 179.188 45.6875C179.271 45.8333 179.406 46.0312 179.594 46.2812C179.802 46.5104 180.083 46.7396 180.438 46.9688C180.812 47.1771 181.271 47.3646 181.812 47.5312C182.354 47.6771 183.01 47.75 183.781 47.75C184.552 47.75 185.219 47.6771 185.781 47.5312C186.344 47.3646 186.812 47.1771 187.188 46.9688C187.583 46.7604 187.885 46.5417 188.094 46.3125C188.323 46.0833 188.49 45.8958 188.594 45.75C187.865 43.625 187.5 41.5 187.5 39.375C187.5 38.2083 187.594 37.0521 187.781 35.9062C187.99 34.7604 188.302 33.625 188.719 32.5C188.365 31.4375 188.104 30.375 187.938 29.3125C187.771 28.25 187.688 27.1354 187.688 25.9688C187.688 24.9062 187.76 23.8229 187.906 22.7188C188.073 21.6146 188.323 20.4792 188.656 19.3125C188.135 17.6875 187.875 16.0104 187.875 14.2812V13.875C187.167 13.6458 186.448 13.4792 185.719 13.375C184.99 13.25 184.177 13.1667 183.281 13.125H182.938ZM207.469 11.8438C206.469 11.7604 205.562 11.6354 204.75 11.4688C203.938 11.3021 203.156 11.0729 202.406 10.7812C201.677 10.4688 200.948 10.1042 200.219 9.6875C199.51 9.27083 198.771 8.77083 198 8.1875C197.958 9.08333 197.802 9.88542 197.531 10.5938C197.281 11.3021 197.01 11.9062 196.719 12.4062C196.448 12.9062 196.188 13.2917 195.938 13.5625C195.708 13.8333 195.583 13.9896 195.562 14.0312C195.5 14.0938 195.427 14.1354 195.344 14.1562C195.26 14.1562 195.188 14.1562 195.125 14.1562C194.917 14.1562 194.75 14.1042 194.625 14C194.521 13.875 194.469 13.7292 194.469 13.5625C194.469 13.3542 194.51 13.2083 194.594 13.125C194.615 13.1042 194.719 12.9688 194.906 12.7188C195.094 12.4688 195.292 12.1146 195.5 11.6562C195.729 11.1771 195.938 10.6146 196.125 9.96875C196.312 9.32292 196.406 8.60417 196.406 7.8125C196.406 7.64583 196.406 7.52083 196.406 7.4375C196.406 7.33333 196.292 7.28125 196.062 7.28125C195.083 7.09375 194.177 6.88542 193.344 6.65625C192.531 6.40625 191.75 6.11458 191 5.78125C190.271 5.44792 189.562 5.0625 188.875 4.625C188.188 4.1875 187.49 3.66667 186.781 3.0625C186.635 3.10417 186.344 3.21875 185.906 3.40625C185.49 3.57292 185.052 3.88542 184.594 4.34375C184.156 4.80208 183.76 5.41667 183.406 6.1875C183.052 6.9375 182.875 7.90625 182.875 9.09375C182.875 9.76042 182.958 10.3021 183.125 10.7188C183.312 11.1354 183.49 11.4479 183.656 11.6562C184.719 11.6979 185.698 11.8125 186.594 12C187.51 12.1667 188.385 12.4167 189.219 12.75C190.073 13.0833 190.917 13.4896 191.75 13.9688C192.583 14.4271 193.469 14.9583 194.406 15.5625C195.406 15.625 196.323 15.75 197.156 15.9375C198.01 16.125 198.833 16.3854 199.625 16.7188C200.417 17.0521 201.198 17.4583 201.969 17.9375C202.76 18.3958 203.594 18.9479 204.469 19.5938C204.677 19.4896 204.969 19.3021 205.344 19.0312C205.719 18.7396 206.094 18.3542 206.469 17.875C206.844 17.375 207.167 16.7812 207.438 16.0938C207.708 15.4062 207.844 14.6042 207.844 13.6875C207.844 13.2708 207.802 12.9062 207.719 12.5938C207.656 12.2812 207.573 12.0312 207.469 11.8438ZM208.812 42.75C207.438 41.5625 206.281 40.1979 205.344 38.6562C204.406 37.0938 203.792 35.4062 203.5 33.5938C202.833 32.9688 202.26 32.3646 201.781 31.7812C201.302 31.1979 200.885 30.5833 200.531 29.9375C200.177 29.2917 199.865 28.5938 199.594 27.8438C199.344 27.0938 199.125 26.2396 198.938 25.2812C198.812 25.2396 198.656 25.2188 198.469 25.2188C198.302 25.2188 198.104 25.2188 197.875 25.2188C197 25.2188 196.208 25.3854 195.5 25.7188C194.792 26.0312 194.188 26.4062 193.688 26.8438C193.188 27.2604 192.792 27.6875 192.5 28.125C192.208 28.5417 192.031 28.8542 191.969 29.0625C192.615 29.6875 193.167 30.2812 193.625 30.8438C194.104 31.3854 194.51 31.9583 194.844 32.5625C195.198 33.1458 195.5 33.7708 195.75 34.4375C196 35.1042 196.219 35.875 196.406 36.75C197.115 36 197.812 35.4479 198.5 35.0938C199.188 34.7188 199.792 34.4583 200.312 34.3125C200.854 34.1458 201.271 34.0625 201.562 34.0625C201.854 34.0625 201.948 34.0625 201.844 34.0625C201.969 34.1042 202.073 34.1771 202.156 34.2812C202.24 34.3646 202.302 34.4583 202.344 34.5625C202.344 34.8333 202.281 35.0104 202.156 35.0938C202.052 35.1771 201.896 35.2292 201.688 35.25C201.479 35.2708 201.219 35.3021 200.906 35.3438C200.594 35.3854 200.24 35.5 199.844 35.6875C199.448 35.875 199 36.1771 198.5 36.5938C198.021 36.9896 197.51 37.5521 196.969 38.2812C198.198 39.5312 199.156 40.9062 199.844 42.4062C200.531 43.9062 201 45.4271 201.25 46.9688C201.375 47.0729 201.562 47.1667 201.812 47.25C202.083 47.3333 202.427 47.375 202.844 47.375C203.948 47.375 204.875 47.1562 205.625 46.7188C206.396 46.2604 207.01 45.75 207.469 45.1875C207.927 44.625 208.26 44.1042 208.469 43.625C208.677 43.125 208.792 42.8333 208.812 42.75ZM204.188 21.3125L203.875 21.0625C203.146 20.5208 202.448 20.0417 201.781 19.625C201.135 19.1875 200.49 18.8125 199.844 18.5C197.927 20.4792 195.708 22.0521 193.188 23.2188C193.479 23.4271 193.75 23.625 194 23.8125C194.25 24 194.49 24.2083 194.719 24.4375C195.302 24.1875 195.854 24.0208 196.375 23.9375C196.917 23.8542 197.396 23.8125 197.812 23.8125C198.417 23.8125 198.896 23.8542 199.25 23.9375C199.604 24.0208 199.802 24.0625 199.844 24.0625L200.219 24.25L200.281 24.5625C200.323 24.8542 200.375 25.1354 200.438 25.4062C200.5 25.6562 200.562 25.8958 200.625 26.125C201.5 25.3125 202.448 24.5833 203.469 23.9375C204.51 23.2917 205.625 22.6979 206.812 22.1562V21.625C206.812 21.4375 206.792 21.2083 206.75 20.9375C206.729 20.6667 206.667 20.3646 206.562 20.0312C206.083 20.4479 205.646 20.75 205.25 20.9375C204.854 21.1042 204.635 21.1875 204.594 21.1875L204.188 21.3125ZM193.688 16.9062C192.896 16.4479 192.156 16.0208 191.469 15.625C190.781 15.2083 190.115 14.8438 189.469 14.5312C189.469 15.3021 189.531 16.0729 189.656 16.8438C189.781 17.5938 189.958 18.3542 190.188 19.125V19.5938C189.667 21.3438 189.344 23.0521 189.219 24.7188C189.552 24.3854 189.854 24.0521 190.125 23.7188C190.417 23.3854 190.646 23.0729 190.812 22.7812L191.281 22.4062C192.656 21.8854 193.938 21.2604 195.125 20.5312C196.333 19.7812 197.438 18.8854 198.438 17.8438C197.146 17.4271 195.698 17.1562 194.094 17.0312L193.688 16.9062ZM190.375 32.5L190.25 32.7812C189.875 33.7188 189.594 34.6771 189.406 35.6562C189.948 35.0521 190.531 34.4792 191.156 33.9375C191.781 33.375 192.396 32.8542 193 32.375C192.667 31.9583 192.302 31.5417 191.906 31.125C191.531 30.6875 191.104 30.2292 190.625 29.75L190.375 29.5625L190.438 29.1875C190.438 29.1667 190.469 29.0312 190.531 28.7812C190.594 28.5104 190.729 28.1875 190.938 27.8125C191.146 27.4167 191.438 27 191.812 26.5625C192.208 26.1042 192.729 25.6562 193.375 25.2188C193.125 25.0312 192.854 24.8438 192.562 24.6562C192.271 24.4688 191.969 24.2917 191.656 24.125C191.469 24.5417 191.135 24.9792 190.656 25.4375C190.177 25.8958 189.698 26.3333 189.219 26.75C189.26 27.7292 189.354 28.6667 189.5 29.5625C189.667 30.4583 189.917 31.3542 190.25 32.25L190.375 32.5ZM230.594 32.4375L230.469 32.7188C229.698 34.8438 229.312 36.8646 229.312 38.7812C229.312 39.7188 229.396 40.6562 229.562 41.5938C229.75 42.5312 230.021 43.5312 230.375 44.5938L230.531 44.9375L230.375 45.1875C230.354 45.2292 230.24 45.4167 230.031 45.75C229.823 46.0625 229.479 46.4062 229 46.7812C228.521 47.1562 227.875 47.5 227.062 47.8125C226.25 48.1042 225.229 48.25 224 48.25C222.771 48.25 221.75 48.0938 220.938 47.7812C220.146 47.4479 219.521 47.0833 219.062 46.6875C218.604 46.2708 218.281 45.8958 218.094 45.5625C217.906 45.2292 217.802 45.0417 217.781 45L217.656 44.6875L217.781 44.4062C218.26 43.2604 218.615 42.1458 218.844 41.0625C219.073 39.9792 219.188 38.875 219.188 37.75C219.188 36.9792 219.135 36.1875 219.031 35.375C218.948 34.5417 218.792 33.6562 218.562 32.7188V32.3125C218.854 31.25 219.062 30.25 219.188 29.3125C219.312 28.375 219.375 27.4583 219.375 26.5625C219.375 24.6667 219.052 22.75 218.406 20.8125L218.281 20.5312L218.406 20.2812C218.865 19.1562 219.188 18.0312 219.375 16.9062C219.583 15.7604 219.708 14.625 219.75 13.5H219.438C217.312 13.5 215.198 13.8854 213.094 14.6562L212.844 14.7188L212.531 14.5938C212.49 14.5938 212.302 14.5 211.969 14.3125C211.635 14.125 211.26 13.8021 210.844 13.3438C210.448 12.8854 210.094 12.2708 209.781 11.5C209.448 10.7083 209.281 9.70833 209.281 8.5C209.281 7.375 209.438 6.45833 209.75 5.75C210.062 5.02083 210.406 4.44792 210.781 4.03125C211.177 3.59375 211.531 3.29167 211.844 3.125C212.177 2.9375 212.365 2.83333 212.406 2.8125L212.656 2.6875L212.969 2.8125C213.885 3.14583 214.802 3.38542 215.719 3.53125C216.635 3.65625 217.583 3.71875 218.562 3.71875C219.438 3.71875 220.375 3.6875 221.375 3.625C222.396 3.54167 223.354 3.33333 224.25 3L224.5 2.875L224.75 3C225.812 3.35417 226.812 3.61458 227.75 3.78125C228.708 3.94792 229.656 4.03125 230.594 4.03125C232.281 4.03125 234.135 3.70833 236.156 3.0625L236.531 2.9375L236.844 3.1875C236.865 3.20833 237 3.32292 237.25 3.53125C237.5 3.73958 237.76 4.0625 238.031 4.5C238.323 4.91667 238.583 5.45833 238.812 6.125C239.062 6.77083 239.198 7.54167 239.219 8.4375C239.219 9.375 239.104 10.1979 238.875 10.9062C238.646 11.5938 238.385 12.1771 238.094 12.6562C237.823 13.1146 237.562 13.4688 237.312 13.7188C237.062 13.9479 236.927 14.0938 236.906 14.1562L236.594 14.4062L236.156 14.2812C235.094 13.9479 234.115 13.7188 233.219 13.5938C232.344 13.4479 231.469 13.375 230.594 13.375H229.688C229.646 13.6667 229.635 13.9479 229.656 14.2188C229.677 14.4688 229.688 14.7188 229.688 14.9688C229.688 15.8438 229.74 16.6979 229.844 17.5312C229.969 18.3646 230.146 19.1979 230.375 20.0312V20.4062C230.062 21.5729 229.823 22.6458 229.656 23.625C229.51 24.6042 229.438 25.5625 229.438 26.5C229.438 27.4583 229.521 28.3958 229.688 29.3125C229.854 30.2292 230.115 31.1875 230.469 32.1875L230.594 32.4375ZM224.938 14.2188C223.688 13.9479 222.5 13.75 221.375 13.625C221.333 14.6042 221.229 15.5625 221.062 16.5C220.917 17.4167 220.698 18.3542 220.406 19.3125C220.885 19.1458 221.354 19.0417 221.812 19C222.292 18.9583 222.74 18.9375 223.156 18.9375C224.323 18.9375 225.198 19.0104 225.781 19.1562C226.365 19.2812 226.771 19.4271 227 19.5938C227.229 19.7604 227.333 19.9167 227.312 20.0625C227.312 20.1875 227.312 20.2396 227.312 20.2188C227.312 20.4062 227.25 20.5625 227.125 20.6875C227 20.8125 226.854 20.875 226.688 20.875C226.646 20.875 226.583 20.8542 226.5 20.8125C226.438 20.75 226.302 20.6875 226.094 20.625C225.906 20.5417 225.625 20.4792 225.25 20.4375C224.875 20.375 224.365 20.3438 223.719 20.3438C223.219 20.3438 222.656 20.3958 222.031 20.5C221.427 20.6042 220.802 20.7917 220.156 21.0625C220.406 22.0625 220.604 23.0104 220.75 23.9062C220.896 24.7812 220.969 25.6667 220.969 26.5625C220.969 27.3542 220.906 28.1667 220.781 29C220.677 29.8125 220.531 30.6875 220.344 31.625C220.656 31.5833 220.979 31.5521 221.312 31.5312C221.667 31.5104 222.021 31.5 222.375 31.5C222.875 31.5 223.427 31.5208 224.031 31.5625C224.635 31.6042 225.198 31.6771 225.719 31.7812C226.26 31.8646 226.708 32 227.062 32.1875C227.438 32.3542 227.625 32.5729 227.625 32.8438C227.625 33.0104 227.552 33.1458 227.406 33.25C227.26 33.3542 227.125 33.4062 227 33.4062C226.521 33.4062 225.969 33.3229 225.344 33.1562C224.719 32.9896 224.073 32.9062 223.406 32.9062C222.885 32.9062 222.365 32.9375 221.844 33C221.323 33.0417 220.802 33.1146 220.281 33.2188C220.448 34.0521 220.573 34.8438 220.656 35.5938C220.74 36.3229 220.781 37.0417 220.781 37.75C220.781 38.9375 220.656 40.0833 220.406 41.1875C220.177 42.2917 219.833 43.4583 219.375 44.6875C219.458 44.8333 219.594 45.0208 219.781 45.25C219.99 45.4792 220.271 45.7083 220.625 45.9375C221 46.1458 221.458 46.3333 222 46.5C222.562 46.6458 223.229 46.7188 224 46.7188C224.771 46.7188 225.438 46.6458 226 46.5C226.562 46.3333 227.031 46.1562 227.406 45.9688C227.802 45.7604 228.104 45.5521 228.312 45.3438C228.521 45.1146 228.677 44.9375 228.781 44.8125C228.094 42.625 227.75 40.5938 227.75 38.7188C227.75 37.6979 227.844 36.6771 228.031 35.6562C228.24 34.6354 228.531 33.5625 228.906 32.4375C228.552 31.375 228.292 30.3646 228.125 29.4062C227.979 28.4271 227.906 27.4375 227.906 26.4375C227.906 25.4583 227.979 24.4688 228.125 23.4688C228.292 22.4688 228.531 21.3854 228.844 20.2188C228.344 18.5104 228.094 16.7396 228.094 14.9062C228.094 14.6771 228.094 14.4583 228.094 14.25C228.094 14.0208 228.115 13.7917 228.156 13.5625C227.698 13.625 227.229 13.7188 226.75 13.8438C226.292 13.9479 225.844 14.0729 225.406 14.2188H224.938ZM237.688 8.5C237.646 7.41667 237.448 6.5625 237.094 5.9375C236.74 5.3125 236.448 4.86458 236.219 4.59375C235.177 4.92708 234.208 5.16667 233.312 5.3125C232.438 5.4375 231.552 5.5 230.656 5.5C229.865 5.5 229.073 5.44792 228.281 5.34375C227.51 5.23958 226.677 5.0625 225.781 4.8125C225.969 5.3125 226.094 5.8125 226.156 6.3125C226.24 6.8125 226.281 7.27083 226.281 7.6875C226.281 8.6875 226.219 9.44792 226.094 9.96875C225.99 10.4688 225.865 10.8229 225.719 11.0312C225.573 11.2188 225.427 11.3125 225.281 11.3125C225.156 11.3125 225.083 11.3125 225.062 11.3125C224.896 11.3125 224.75 11.2604 224.625 11.1562C224.5 11.0521 224.438 10.9167 224.438 10.75C224.438 10.7083 224.458 10.6667 224.5 10.625C224.542 10.5833 224.583 10.4896 224.625 10.3438C224.667 10.1771 224.708 9.9375 224.75 9.625C224.792 9.3125 224.812 8.85417 224.812 8.25C224.812 7.72917 224.75 7.15625 224.625 6.53125C224.521 5.90625 224.312 5.26042 224 4.59375C223.958 4.59375 223.906 4.61458 223.844 4.65625C223.802 4.67708 223.76 4.6875 223.719 4.6875C222.823 4.85417 221.948 4.97917 221.094 5.0625C220.24 5.14583 219.396 5.1875 218.562 5.1875C217.562 5.1875 216.583 5.125 215.625 5C214.667 4.85417 213.698 4.61458 212.719 4.28125C212.573 4.38542 212.396 4.53125 212.188 4.71875C211.979 4.90625 211.771 5.16667 211.562 5.5C211.375 5.8125 211.208 6.19792 211.062 6.65625C210.938 7.11458 210.875 7.66667 210.875 8.3125C210.875 9.125 210.948 9.82292 211.094 10.4062C211.26 10.9896 211.448 11.4688 211.656 11.8438C211.865 12.2188 212.083 12.5104 212.312 12.7188C212.542 12.9062 212.74 13.0417 212.906 13.125C214.01 12.7708 215.104 12.5104 216.188 12.3438C217.271 12.1771 218.375 12.0938 219.5 12.0938C220.479 12.0938 221.417 12.1667 222.312 12.3125C223.229 12.4375 224.177 12.5833 225.156 12.75C226.094 12.4583 226.99 12.25 227.844 12.125C228.719 11.9792 229.615 11.9062 230.531 11.9062C231.406 11.9062 232.292 11.9792 233.188 12.125C234.104 12.25 235.094 12.4583 236.156 12.75C236.302 12.6042 236.458 12.4062 236.625 12.1562C236.812 11.9062 236.979 11.6146 237.125 11.2812C237.292 10.9271 237.427 10.5208 237.531 10.0625C237.635 9.60417 237.688 9.08333 237.688 8.5Z" fill="black"/>
</svg>
