<svg width="60" height="63" viewBox="0 0 60 63" fill="none" xmlns="http://www.w3.org/2000/svg">
<rect x="0.5" y="20.6429" width="59" height="41.8571" fill="white" stroke="black"/>
<rect x="9" y="30" width="41" height="22" fill="#FF7A00"/>
<path d="M20 20.1429C20.155 13.9524 22.4186 1.57143 30.2326 1.57143C38.0465 1.57143 40 13.9524 40 20.1429" stroke="black" stroke-width="2"/>
<path d="M13.336 43V42.608L13.924 42.496C13.924 42.3793 13.924 42.265 13.924 42.153C13.924 42.0363 13.924 41.9197 13.924 41.803C13.924 41.6863 13.924 41.572 13.924 41.46V38.534L13.28 38.394V38.058L14.316 37.89H14.596V38.674L14.554 40.2H14.596V42.244H14.568L14.512 43.028L13.336 43ZM15.8 43.084C15.5947 43.084 15.4267 43.0513 15.296 42.986C15.17 42.9207 15.065 42.8343 14.981 42.727C14.9017 42.6197 14.8293 42.5053 14.764 42.384H14.372V41.768C14.568 42.034 14.7547 42.2417 14.932 42.391C15.1093 42.5357 15.324 42.608 15.576 42.608C15.7627 42.608 15.9283 42.5613 16.073 42.468C16.2223 42.37 16.339 42.2207 16.423 42.02C16.5117 41.8147 16.556 41.5533 16.556 41.236C16.556 40.76 16.4627 40.4123 16.276 40.193C16.0893 39.9737 15.856 39.864 15.576 39.864C15.408 39.864 15.2563 39.8967 15.121 39.962C14.9903 40.0273 14.8643 40.123 14.743 40.249C14.6263 40.375 14.5027 40.5267 14.372 40.704V40.088H14.764C14.8293 39.9573 14.9017 39.8383 14.981 39.731C15.065 39.619 15.17 39.5303 15.296 39.465C15.4267 39.395 15.5947 39.36 15.8 39.36C16.08 39.36 16.332 39.43 16.556 39.57C16.78 39.71 16.9573 39.9177 17.088 40.193C17.2187 40.4683 17.284 40.8067 17.284 41.208C17.284 41.6093 17.2187 41.95 17.088 42.23C16.9573 42.51 16.78 42.7223 16.556 42.867C16.332 43.0117 16.08 43.084 15.8 43.084ZM18.6571 43V42.58H19.4691H19.6931H20.5051V43H18.6571ZM19.2451 43C19.2451 42.8273 19.2451 42.657 19.2451 42.489C19.2451 42.3163 19.2451 42.1437 19.2451 41.971C19.2451 41.7983 19.2451 41.628 19.2451 41.46V41.068C19.2451 40.9047 19.2451 40.7413 19.2451 40.578C19.2451 40.4147 19.2451 40.2513 19.2451 40.088H18.6291V39.724L19.6371 39.444H19.9171V40.2V41.46C19.9171 41.628 19.9171 41.7983 19.9171 41.971C19.9171 42.1437 19.9171 42.3163 19.9171 42.489C19.9171 42.657 19.9171 42.8273 19.9171 43H19.2451ZM19.5811 38.744C19.4504 38.744 19.3384 38.6973 19.2451 38.604C19.1518 38.5107 19.1051 38.3987 19.1051 38.268C19.1051 38.1327 19.1518 38.0207 19.2451 37.932C19.3384 37.8387 19.4504 37.792 19.5811 37.792C19.7164 37.792 19.8284 37.8387 19.9171 37.932C20.0104 38.0207 20.0571 38.1327 20.0571 38.268C20.0571 38.3987 20.0104 38.5107 19.9171 38.604C19.8284 38.6973 19.7164 38.744 19.5811 38.744ZM23.1816 43.084C22.9109 43.084 22.6659 43.0607 22.4466 43.014C22.2272 42.9673 22.0476 42.916 21.9076 42.86L21.8796 41.936H22.3276L22.5236 42.804H22.1316V42.482C22.2436 42.538 22.3929 42.5893 22.5796 42.636C22.7662 42.6827 22.9669 42.706 23.1816 42.706C23.3729 42.706 23.5246 42.678 23.6366 42.622C23.7532 42.5613 23.8372 42.4867 23.8886 42.398C23.9399 42.3047 23.9656 42.2067 23.9656 42.104C23.9656 41.95 23.9119 41.8287 23.8046 41.74C23.6972 41.6513 23.5176 41.5697 23.2656 41.495L23.1256 41.453C22.8596 41.3737 22.6356 41.2873 22.4536 41.194C22.2762 41.096 22.1409 40.9817 22.0476 40.851C21.9542 40.7157 21.9076 40.5547 21.9076 40.368C21.9076 40.1627 21.9659 39.9853 22.0826 39.836C22.1992 39.682 22.3626 39.5653 22.5726 39.486C22.7872 39.402 23.0369 39.36 23.3216 39.36C23.5409 39.36 23.7532 39.3833 23.9586 39.43C24.1639 39.4767 24.3296 39.528 24.4556 39.584V40.452H24.0076L23.8396 39.64H24.1476V39.906C24.0356 39.85 23.9096 39.808 23.7696 39.78C23.6342 39.752 23.4849 39.738 23.3216 39.738C23.0649 39.738 22.8759 39.7893 22.7546 39.892C22.6379 39.9947 22.5796 40.116 22.5796 40.256C22.5796 40.396 22.6309 40.508 22.7336 40.592C22.8362 40.676 23.0136 40.7577 23.2656 40.837L23.4056 40.879C23.6716 40.9583 23.8979 41.047 24.0846 41.145C24.2712 41.243 24.4112 41.3597 24.5046 41.495C24.6026 41.6303 24.6516 41.796 24.6516 41.992C24.6516 42.2067 24.5909 42.3957 24.4696 42.559C24.3529 42.7223 24.1849 42.8507 23.9656 42.944C23.7462 43.0373 23.4849 43.084 23.1816 43.084ZM27.7742 43.084C27.4055 43.084 27.0929 43.0093 26.8362 42.86C26.5795 42.706 26.3835 42.4937 26.2482 42.223C26.1175 41.9523 26.0522 41.6373 26.0522 41.278C26.0522 40.914 26.1199 40.5873 26.2552 40.298C26.3905 40.0087 26.5842 39.78 26.8362 39.612C27.0882 39.444 27.3869 39.36 27.7322 39.36C28.0542 39.36 28.3272 39.4183 28.5512 39.535C28.7752 39.647 28.9455 39.808 29.0622 40.018C29.1835 40.228 29.2442 40.4753 29.2442 40.76C29.2442 40.858 29.2372 40.9607 29.2232 41.068C29.2139 41.1753 29.2022 41.2593 29.1882 41.32H26.5282V40.956H28.5862C28.5909 40.8907 28.5932 40.8323 28.5932 40.781C28.5979 40.7297 28.6002 40.676 28.6002 40.62C28.6002 40.424 28.5652 40.263 28.4952 40.137C28.4299 40.011 28.3319 39.9177 28.2012 39.857C28.0705 39.7963 27.9142 39.766 27.7322 39.766C27.5315 39.766 27.3565 39.8197 27.2072 39.927C27.0625 40.0343 26.9505 40.1953 26.8712 40.41C26.7919 40.6247 26.7522 40.8953 26.7522 41.222C26.7522 41.5067 26.8012 41.7517 26.8992 41.957C26.9972 42.1623 27.1325 42.321 27.3052 42.433C27.4825 42.5403 27.6855 42.594 27.9142 42.594C28.1895 42.594 28.4089 42.5403 28.5722 42.433C28.7402 42.3257 28.8825 42.1997 28.9992 42.055L29.2862 42.293C29.1789 42.4423 29.0575 42.5777 28.9222 42.699C28.7915 42.8203 28.6329 42.916 28.4462 42.986C28.2642 43.0513 28.0402 43.084 27.7742 43.084ZM30.6419 43V42.58H31.4539H31.6779H32.6859V43H30.6419ZM31.2299 43C31.2299 42.8273 31.2299 42.657 31.2299 42.489C31.2299 42.3163 31.2299 42.1437 31.2299 41.971C31.2299 41.7983 31.2299 41.628 31.2299 41.46V41.068C31.2299 40.956 31.2299 40.8463 31.2299 40.739C31.2299 40.6317 31.2299 40.5243 31.2299 40.417C31.2299 40.305 31.2299 40.1953 31.2299 40.088H30.6139V39.724L31.4819 39.444H31.7619L31.8179 40.48H31.9019V41.46C31.9019 41.628 31.9019 41.7983 31.9019 41.971C31.9019 42.1437 31.9019 42.3163 31.9019 42.489C31.9019 42.657 31.9019 42.8273 31.9019 43H31.2299ZM31.7899 41.012V40.452H32.0139C32.1072 40.2467 32.1982 40.0647 32.2869 39.906C32.3802 39.7427 32.4829 39.6167 32.5949 39.528C32.7115 39.4347 32.8539 39.388 33.0219 39.388C33.1899 39.388 33.3182 39.4323 33.4069 39.521C33.4955 39.6097 33.5539 39.696 33.5819 39.78C33.5679 39.906 33.5212 40.0273 33.4419 40.144C33.3672 40.256 33.2459 40.312 33.0779 40.312C32.9659 40.312 32.8725 40.2887 32.7979 40.242C32.7232 40.1953 32.6579 40.144 32.6019 40.088L32.4619 39.948H32.8539C32.6019 40.06 32.3895 40.2163 32.2169 40.417C32.0442 40.6177 31.9019 40.816 31.7899 41.012ZM35.6855 43.112C35.4148 43.112 35.1815 43.0303 34.9855 42.867C34.7895 42.7037 34.6915 42.468 34.6915 42.16C34.6915 41.9547 34.7335 41.782 34.8175 41.642C34.9061 41.4973 35.0321 41.3783 35.1955 41.285C35.3635 41.187 35.5688 41.1053 35.8115 41.04C35.9608 40.998 36.1078 40.9583 36.2525 40.921C36.3971 40.8837 36.5418 40.8463 36.6865 40.809C36.8358 40.767 36.9828 40.7273 37.1275 40.69V41.012C36.9455 41.068 36.7635 41.124 36.5815 41.18C36.3995 41.236 36.2175 41.292 36.0355 41.348C35.8675 41.3993 35.7345 41.4553 35.6365 41.516C35.5385 41.5767 35.4685 41.649 35.4265 41.733C35.3845 41.8123 35.3635 41.908 35.3635 42.02C35.3635 42.188 35.4171 42.328 35.5245 42.44C35.6318 42.552 35.7835 42.608 35.9795 42.608C36.1288 42.608 36.2618 42.5777 36.3785 42.517C36.4951 42.4563 36.6048 42.377 36.7075 42.279C36.8101 42.181 36.9128 42.076 37.0155 41.964V42.412H36.7355C36.6888 42.5147 36.6235 42.6197 36.5395 42.727C36.4555 42.8343 36.3435 42.9253 36.2035 43C36.0681 43.0747 35.8955 43.112 35.6855 43.112ZM37.6595 43.084C37.4495 43.084 37.2791 43.0187 37.1485 42.888C37.0178 42.7527 36.9455 42.538 36.9315 42.244H36.9035V40.62C36.9035 40.4147 36.8731 40.249 36.8125 40.123C36.7518 39.9923 36.6608 39.899 36.5395 39.843C36.4181 39.7823 36.2688 39.752 36.0915 39.752C35.9375 39.752 35.8021 39.7637 35.6855 39.787C35.5735 39.8103 35.4708 39.8453 35.3775 39.892L35.6435 39.556L35.5875 40.228C35.5735 40.396 35.5315 40.5173 35.4615 40.592C35.3915 40.6667 35.2935 40.704 35.1675 40.704C35.0415 40.704 34.9481 40.6713 34.8875 40.606C34.8268 40.536 34.7895 40.466 34.7755 40.396C34.8315 40.088 34.9925 39.8383 35.2585 39.647C35.5245 39.4557 35.8675 39.36 36.2875 39.36C36.5301 39.36 36.7471 39.3997 36.9385 39.479C37.1345 39.5537 37.2885 39.6797 37.4005 39.857C37.5171 40.0297 37.5755 40.2653 37.5755 40.564V42.188C37.5755 42.328 37.6035 42.4283 37.6595 42.489C37.7155 42.5497 37.7995 42.58 37.9115 42.58C37.9675 42.58 38.0188 42.5753 38.0655 42.566C38.1168 42.552 38.1588 42.538 38.1915 42.524L38.2755 42.86C38.2195 42.902 38.1401 42.9487 38.0375 43C37.9395 43.056 37.8135 43.084 37.6595 43.084ZM39.3973 43V42.58H40.2093H40.4333H41.4413V43H39.3973ZM39.9853 43C39.9853 42.8273 39.9853 42.657 39.9853 42.489C39.9853 42.3163 39.9853 42.1437 39.9853 41.971C39.9853 41.7983 39.9853 41.628 39.9853 41.46V41.068C39.9853 40.956 39.9853 40.8463 39.9853 40.739C39.9853 40.6317 39.9853 40.5243 39.9853 40.417C39.9853 40.305 39.9853 40.1953 39.9853 40.088H39.3693V39.724L40.2373 39.444H40.5173L40.5733 40.48H40.6573V41.46C40.6573 41.628 40.6573 41.7983 40.6573 41.971C40.6573 42.1437 40.6573 42.3163 40.6573 42.489C40.6573 42.657 40.6573 42.8273 40.6573 43H39.9853ZM40.5453 41.012V40.452H40.7693C40.8627 40.2467 40.9537 40.0647 41.0423 39.906C41.1357 39.7427 41.2383 39.6167 41.3503 39.528C41.467 39.4347 41.6093 39.388 41.7773 39.388C41.9453 39.388 42.0737 39.4323 42.1623 39.521C42.251 39.6097 42.3093 39.696 42.3373 39.78C42.3233 39.906 42.2767 40.0273 42.1973 40.144C42.1227 40.256 42.0013 40.312 41.8333 40.312C41.7213 40.312 41.628 40.2887 41.5533 40.242C41.4787 40.1953 41.4133 40.144 41.3573 40.088L41.2173 39.948H41.6093C41.3573 40.06 41.145 40.2163 40.9723 40.417C40.7997 40.6177 40.6573 40.816 40.5453 41.012ZM44.52 39.878V39.444H45.836V39.878H44.52ZM45.108 43.056C44.828 43.056 44.5993 42.9767 44.422 42.818C44.2447 42.6593 44.156 42.412 44.156 42.076C44.156 41.9967 44.156 41.9173 44.156 41.838C44.156 41.7587 44.156 41.6793 44.156 41.6V39.878H43.512V39.528L44.436 39.416L44.212 39.612L44.436 38.464H44.884L44.772 39.78H44.828V42.02C44.828 42.216 44.87 42.3537 44.954 42.433C45.038 42.5123 45.1593 42.552 45.318 42.552C45.416 42.552 45.5023 42.5403 45.577 42.517C45.6563 42.4937 45.7193 42.4727 45.766 42.454L45.92 42.804C45.8827 42.832 45.8243 42.867 45.745 42.909C45.6703 42.9463 45.577 42.979 45.465 43.007C45.3577 43.0397 45.2387 43.056 45.108 43.056Z" fill="black"/>
</svg>
