<svg width="29" height="29" viewBox="0 0 29 29" fill="none" xmlns="http://www.w3.org/2000/svg">
<path d="M12.3854 3.625C7.5579 3.625 3.625 7.55791 3.625 12.3854C3.625 17.2129 7.5579 21.1458 12.3854 21.1458C14.4736 21.1458 16.3933 20.4082 17.9008 19.1823L23.828 25.1095C23.9115 25.1965 24.0115 25.2659 24.1222 25.3137C24.2329 25.3616 24.352 25.3868 24.4726 25.3881C24.5931 25.3893 24.7127 25.3665 24.8244 25.3209C24.936 25.2753 25.0374 25.2079 25.1227 25.1227C25.2079 25.0374 25.2753 24.936 25.3209 24.8244C25.3665 24.7127 25.3893 24.5931 25.3881 24.4726C25.3868 24.352 25.3616 24.2329 25.3137 24.1222C25.2659 24.0115 25.1965 23.9115 25.1095 23.828L19.1823 17.9008C20.4082 16.3933 21.1458 14.4736 21.1458 12.3854C21.1458 7.55791 17.2129 3.625 12.3854 3.625ZM12.3854 5.4375C16.2334 5.4375 19.3333 8.53745 19.3333 12.3854C19.3333 14.2599 18.594 15.9535 17.3946 17.201C17.3206 17.2554 17.2554 17.3206 17.201 17.3946C15.9535 18.594 14.2599 19.3333 12.3854 19.3333C8.53745 19.3333 5.4375 16.2334 5.4375 12.3854C5.4375 8.53745 8.53745 5.4375 12.3854 5.4375Z" fill="black"/>
</svg>
