<svg width="44.300293" height="43.229004" viewBox="0 0 44.3003 43.229" fill="none" xmlns="http://www.w3.org/2000/svg" xmlns:xlink="http://www.w3.org/1999/xlink">
	<desc>
			Created with Pixso.
	</desc>
	<defs>
		<clipPath id="clip17_753">
			<rect id="icons8-youtube-play 1" width="44.300259" height="43.229202" fill="white" fill-opacity="0"/>
		</clipPath>
	</defs>
	<rect id="icons8-youtube-play 1" width="44.300259" height="43.229202" fill="#FFFFFF" fill-opacity="0"/>
	<g clip-path="url(#clip17_753)">
		<path id="Vector" d="M2.55 24.63C2.08 21.56 2.29 18.78 2.93 15.75C3.14 14.75 3.43 13.75 3.92 12.84C5.55 9.89 9.17 8.5 12.6 8.12C16.03 7.75 19.32 7.92 22.77 7.73C27.85 7.44 32.31 7.99 37.05 9.06C37.79 9.23 38.54 9.4 39.17 9.79C40.64 10.68 41.18 12.49 41.47 14.15C42.34 19.16 42.03 24.29 41.44 29.34C41.28 30.65 41.07 32.05 40.19 33.06C39.41 33.97 38.21 34.43 37.04 34.74C33.93 35.56 30.67 35.56 27.45 35.55C23.55 35.54 19.65 35.52 15.75 35.51C11.95 35.5 7.82 35.37 4.9 33.02C4.27 32.51 3.71 31.9 3.41 31.16C3.19 30.63 3.12 30.05 3.04 29.48C2.8 27.63 2.83 26.47 2.55 24.63Z" fill="#EF4823" fill-opacity="1.000000" fill-rule="nonzero"/>
		<path id="Vector" d="M42.46 19.99C42.42 17.89 42.25 15.77 41.85 13.71C41.56 12.18 41.01 10.55 39.68 9.58C38.92 9.03 37.98 8.81 37.07 8.6C36.04 8.37 35 8.16 33.96 7.98C31.94 7.62 29.9 7.37 27.85 7.27C25.66 7.15 23.5 7.27 21.31 7.34C19.11 7.41 16.91 7.38 14.71 7.5C11.26 7.69 7.56 8.32 4.98 10.75C3.63 12.02 2.92 13.66 2.53 15.43C2.08 17.46 1.8 19.55 1.84 21.64C1.85 22.68 1.96 23.71 2.11 24.74C2.39 26.67 2.34 28.64 2.75 30.55C3.12 32.31 4.58 33.55 6.14 34.37C9.44 36.09 13.38 35.95 17.01 35.96C21.55 35.98 26.11 36.09 30.64 35.98C32.83 35.92 35.04 35.74 37.16 35.18C38.9 34.72 40.51 33.9 41.25 32.22C41.6 31.42 41.74 30.56 41.85 29.7C41.99 28.64 42.1 27.58 42.19 26.52C42.39 24.35 42.5 22.17 42.46 19.99ZM40.97 29.34C40.76 31.15 40.33 32.85 38.53 33.74C36.82 34.58 34.72 34.82 32.83 34.97C28.7 35.29 24.49 35.09 20.34 35.07C18.33 35.07 16.31 35.09 14.29 35.05C12.6 35.01 10.89 34.91 9.24 34.53C7.59 34.14 5.95 33.46 4.74 32.27C3.36 30.92 3.42 28.92 3.28 27.14C3.21 26.26 3.13 25.38 3 24.5C2.7 22.52 2.69 20.5 2.93 18.51C3.15 16.62 3.45 14.52 4.44 12.85C6.06 10.15 9.41 8.96 12.43 8.59C14.46 8.34 16.52 8.32 18.56 8.29C20.59 8.27 22.61 8.14 24.65 8.11C28.58 8.04 32.47 8.52 36.31 9.35C37.19 9.55 38.16 9.69 38.94 10.17C39.64 10.6 40.11 11.3 40.42 12.03C41.1 13.66 41.26 15.54 41.4 17.28C41.74 21.3 41.45 25.34 40.97 29.34Z" fill="#010101" fill-opacity="1.000000" fill-rule="nonzero"/>
		<path id="Vector" d="M18.08 15.79C17.53 19.81 18.25 23.73 18.18 27.43C21.7 25.51 25.5 23.58 29.03 21.65C27.58 20.78 25.95 19.89 24.41 19.18C22.37 18.23 19.8 16.92 18.08 15.79Z" fill="#D6E5E5" fill-opacity="1.000000" fill-rule="nonzero"/>
		<path id="Vector" d="M29.26 21.26C25.71 19.14 21.78 17.66 18.32 15.4C18.17 15.3 18.04 15.31 17.92 15.36C17.79 15.39 17.67 15.48 17.64 15.67C17.24 17.82 17.12 19.98 17.31 22.16C17.46 23.92 17.74 25.66 17.72 27.43C17.71 27.78 18.11 27.98 18.41 27.82C22.01 25.86 25.66 24 29.26 22.04C29.57 21.87 29.55 21.44 29.26 21.26ZM18.25 22.31C18.07 20.37 18.14 18.45 18.44 16.54C21.53 18.45 24.93 19.84 28.09 21.64C24.95 23.34 21.77 24.98 18.62 26.68C18.58 25.22 18.38 23.77 18.25 22.31Z" fill="#010101" fill-opacity="1.000000" fill-rule="nonzero"/>
	</g>
</svg>
